<svg width="288" height="145" fill="none" xmlns="http://www.w3.org/2000/svg"><g clip-path="url(#clip0)"><path d="M94.527 18.158v77.988h172.846V17.967l-172.846.19z" fill="#73CAFF" stroke="#101737" stroke-linejoin="bevel"/><path d="M78.24.166H.165v106.241H78.24V.166z" fill="#00961B" stroke="#101737" stroke-linejoin="bevel"/><path d="M69.556 8.78H8.852v89.013h60.704V8.78z" fill="#FDDA00" stroke="#101737" stroke-linejoin="bevel"/><path d="M69.553 97.79l8.687 8.615M78.24.164L69.553 8.78M.165.166L8.852 8.78M276.713 96.84v8.625l11.122-8.625V.21H96.313L85.187 8.84h11.126" stroke="#101737" stroke-linejoin="bevel"/><path d="M85.187 8.836v96.629h191.526V8.835H85.187zm182.186 87.31H94.527V18.158l172.846-.19v78.178z" stroke="#101737" stroke-linejoin="bevel"/><path d="M116.555 74.111a196.853 196.853 0 0 0 11.026-28.368c3.003-9.865 17.681-2.384 9.653 8.04-7.21 9.352-20.679 20.328-20.679 20.328z" fill="#FFF6FF" stroke="#101737" stroke-linejoin="bevel"/><path d="M116.555 74.111c3.186-2.686 7.118-6.714 16.784-17.94 6.729-7.817 17.137 4.932 5.602 11.239-10.391 5.665-22.386 6.701-22.386 6.701z" fill="#FFF6FF" stroke="#101737" stroke-linejoin="bevel"/><path d="M116.555 74.111c4-1.177 5.17-1.509 18.554-7.892 9.313-4.449 13.699 11.4.573 12.532-11.788 1.01-19.127-4.64-19.127-4.64z" fill="#FFF6FF" stroke="#101737" stroke-linejoin="bevel"/><path d="M116.578 74.23c.593-1.954 1.137-4.66 2.119-11.861.685-5.011 8.384-2.532 5.309 3.144-2.762 5.1-7.428 8.717-7.428 8.717z" fill="#FFF6FF" stroke="#101737" stroke-linejoin="bevel"/><path d="M116.578 74.23c1.318-1.55 1.829-2.388 5.635-8.58 2.653-4.314 8.697 1.053 3.589 5.012-4.588 3.554-9.224 3.568-9.224 3.568z" fill="#FFF6FF" stroke="#101737" stroke-linejoin="bevel"/><path d="M116.578 74.23c1.845-.882.458.032 6.446-4.104 4.165-2.884 7.533 4.459 1.259 6.027-5.642 1.41-7.705-1.923-7.705-1.923z" fill="#FFF6FF" stroke="#101737" stroke-linejoin="bevel"/><path d="M107.541 96.856l21.339-8.944 21.174 11.049-19.477 9.92-23.036-12.025z" fill="#FD6EFF" stroke="#101737" stroke-linejoin="bevel"/><path d="M109.874 95.88l17.065 9.292h10.921l12.194-6.211-21.174-11.049-19.006 7.968z" fill="#101737"/><path d="M109.238 68.8l21.824 10.967v22.663l-21.824-10.888V68.801z" fill="#FD6EFF" stroke="#101737" stroke-linejoin="bevel"/><path d="M111.904 74.769l16.653 8.382v13.705l-16.653-8.313V74.77z" fill="#101737"/><path d="M116.601 72.5l-7.363-3.7 4.607-2.498 21.339 11.045-4.122 2.42-14.461-7.267zM116.63 67.742l15.562-3.055 14.629 6.935-11.637 5.725-18.554-9.605z" fill="#FD6EFF" stroke="#101737" stroke-linejoin="bevel"/><path d="M146.821 71.622v13.992l-11.637 11.331V77.347l11.637-5.725z" fill="#FD6EFF" stroke="#101737" stroke-linejoin="bevel"/><path d="M145.737 86.67v6.727l-10.553 5.564v-2.016l10.553-10.276z" fill="#FD6EFF" stroke="#101737" stroke-linejoin="bevel"/><path d="M135.184 100.24l-4.122 2.19V79.767l4.122-2.19v22.663zM107.541 96.856l23.036 12.026v8.467l-23.036-12.016v-8.477z" fill="#FD6EFF" stroke="#101737" stroke-linejoin="bevel"/><path d="M130.577 108.882l19.477-9.921v8.487l-19.477 9.901v-8.467z" fill="#FD6EFF" stroke="#101737" stroke-linejoin="bevel"/><path d="M121.765 108.882l4.123 2.176" stroke="#101737" stroke-linejoin="bevel"/><path d="M136.13 85.064a219.54 219.54 0 0 0 17.704-28.92c5.243-10.217 19.853.872 8.99 10.713-9.755 8.84-26.694 18.207-26.694 18.207z" fill="#FFF6FF" stroke="#101737" stroke-linejoin="bevel"/><path d="M136.13 85.064c4.024-2.301 9.132-5.955 21.952-16.355 8.924-7.235 17.816 8.78 3.899 13.419-12.497 4.17-25.851 2.936-25.851 2.936z" fill="#FFF6FF" stroke="#101737" stroke-linejoin="bevel"/><path d="M136.13 85.064c4.614-.503 5.968-.63 21.899-4.998 11.093-3.038 12.761 15.202-1.849 13.854-13.123-1.214-20.05-8.856-20.05-8.856z" fill="#FFF6FF" stroke="#101737" stroke-linejoin="bevel"/><path d="M136.13 85.2c1.038-2.026 2.172-4.884 4.673-12.585 1.744-5.36 9.693-1.121 5.197 4.495-4.037 5.044-9.87 8.09-9.87 8.09z" fill="#FFF6FF" stroke="#101737" stroke-linejoin="bevel"/><path d="M136.13 85.2c1.77-1.434 2.478-2.253 7.88-8.294 3.76-4.205 9.323 2.868 2.94 6.202-5.731 2.992-10.82 2.091-10.82 2.091z" fill="#FFF6FF" stroke="#101737" stroke-linejoin="bevel"/><path d="M136.13 85.2c2.198-.602.498.128 7.88-3.23 5.138-2.338 7.375 6.373.188 6.86-6.443.434-8.068-3.63-8.068-3.63zM191.143 42.87a196.961 196.961 0 0 0 11.027-28.365c3.002-9.865 17.678-2.384 9.653 8.036-7.221 9.355-20.68 20.328-20.68 20.328z" fill="#FFF6FF" stroke="#101737" stroke-linejoin="bevel"/><path d="M191.143 42.87c3.184-2.684 7.115-6.712 16.784-17.938 6.73-7.816 17.137 4.932 5.603 11.236-10.404 5.669-22.387 6.701-22.387 6.701z" fill="#FFF6FF" stroke="#101737" stroke-linejoin="bevel"/><path d="M191.143 42.87c3.998-1.178 5.171-1.507 18.551-7.893 9.307-4.449 13.69 11.388.563 12.532-11.784 1.013-19.114-4.64-19.114-4.64z" fill="#FFF6FF" stroke="#101737" stroke-linejoin="bevel"/><path d="M191.143 42.99c.597-1.952 1.14-4.662 2.123-11.86.682-5.014 8.383-2.532 5.309 3.144-2.755 5.1-7.432 8.717-7.432 8.717z" fill="#FFF6FF" stroke="#101737" stroke-linejoin="bevel"/><path d="M191.143 42.991c1.335-1.549 1.832-2.387 5.639-8.583 2.636-4.31 8.694 1.053 3.589 5.012-4.578 3.558-9.228 3.571-9.228 3.571z" fill="#FFF6FF" stroke="#101737" stroke-linejoin="bevel"/><path d="M191.143 42.991c1.849-.881.462.033 6.446-4.107 4.169-2.88 7.534 4.459 1.263 6.03-5.626 1.411-7.709-1.923-7.709-1.923z" fill="#FFF6FF" stroke="#101737" stroke-linejoin="bevel"/><path d="M182.12 65.618l21.335-8.944 21.178 11.048-19.48 9.92-23.033-12.024z" fill="#FDDA00" stroke="#101737" stroke-linejoin="bevel"/><path d="M184.45 64.641l17.068 9.293h10.921l12.194-6.212-21.178-11.048-19.005 7.967z" fill="#101737"/><path d="M183.814 37.562l21.826 10.966v22.663l-21.826-10.887V37.562z" fill="#FDDA00" stroke="#101737" stroke-linejoin="bevel"/><path d="M186.483 43.53l16.649 8.382v13.706l-16.649-8.316V43.53z" fill="#101737"/><path d="M191.176 41.261l-7.362-3.699 4.61-2.502 21.336 11.048-4.12 2.42-14.464-7.267z" fill="#FDDA00" stroke="#101737" stroke-linejoin="bevel"/><path d="M191.206 36.503l15.565-3.055 14.629 6.935-11.64 5.725-18.554-9.605z" fill="#FDDA00" stroke="#101737" stroke-linejoin="bevel"/><path d="M221.4 40.383v13.992l-11.64 11.332V46.108l11.64-5.725z" fill="#FDDA00" stroke="#101737" stroke-linejoin="bevel"/><path d="M220.316 55.43v6.728l-10.556 5.564v-2.016l10.556-10.276zM209.76 69.001l-4.12 2.19V48.528l4.12-2.19v22.663zM182.12 65.618l23.033 12.025v8.467L182.12 74.095v-8.477z" fill="#FDDA00" stroke="#101737" stroke-linejoin="bevel"/><path d="M205.153 77.643l19.48-9.92v8.483l-19.48 9.904v-8.467z" fill="#FDDA00" stroke="#101737" stroke-linejoin="bevel"/><path d="M196.344 77.643l4.122 2.177" stroke="#101737" stroke-linejoin="bevel"/><path d="M210.706 53.826a219.795 219.795 0 0 0 17.707-28.92c5.243-10.217 19.852.87 8.99 10.713-9.758 8.839-26.697 18.207-26.697 18.207z" fill="#FFF6FF" stroke="#101737" stroke-linejoin="bevel"/><path d="M210.706 53.826c4.024-2.302 9.132-5.955 21.951-16.356 8.928-7.234 17.82 8.78 3.902 13.42-12.5 4.169-25.853 2.936-25.853 2.936z" fill="#FFF6FF" stroke="#101737" stroke-linejoin="bevel"/><path d="M210.706 53.826c4.613-.503 5.968-.632 21.902-4.998 11.093-3.039 12.76 15.201-1.849 13.85-13.123-1.21-20.053-8.852-20.053-8.852z" fill="#FFF6FF" stroke="#101737" stroke-linejoin="bevel"/><path d="M210.706 53.96c1.041-2.025 2.171-4.882 4.676-12.584 1.74-5.36 9.689-1.124 5.194 4.492-4.037 5.048-9.87 8.093-9.87 8.093z" fill="#FFF6FF" stroke="#101737" stroke-linejoin="bevel"/><path d="M210.706 53.96c1.769-1.433 2.481-2.255 7.879-8.292 3.761-4.206 9.324 2.867 2.943 6.198-5.734 2.996-10.822 2.095-10.822 2.095z" fill="#FFF6FF" stroke="#101737" stroke-linejoin="bevel"/><path d="M210.706 53.96c2.201-.601.501.129 7.879-3.228 5.141-2.338 7.376 6.372.188 6.856-6.456.437-8.067-3.627-8.067-3.627z" fill="#FFF6FF" stroke="#101737" stroke-linejoin="bevel"/><path d="M283.966 76.946a15.971 15.971 0 0 0-2.997-9.318 16.025 16.025 0 0 0-7.877-5.83 16.062 16.062 0 0 0-9.807-.16 16.026 16.026 0 0 0-8.063 5.571c-.227 0-.455-.016-.682-.016a12.92 12.92 0 0 0-8.334 3.044 12.863 12.863 0 0 0-4.393 7.695h-.178a7.522 7.522 0 0 0-5.172 2.058 7.49 7.49 0 0 0-2.332 5.045h47.64a15.862 15.862 0 0 0 2.195-8.09zM159.835 24.498a15.962 15.962 0 0 0-2.999-9.317 16.019 16.019 0 0 0-7.877-5.829 16.058 16.058 0 0 0-9.805-.158 16.027 16.027 0 0 0-8.063 5.57 12.921 12.921 0 0 0-9.021 3.031 12.867 12.867 0 0 0-4.388 7.706h-.178a7.522 7.522 0 0 0-5.172 2.058A7.49 7.49 0 0 0 110 32.603h47.64a15.882 15.882 0 0 0 2.195-8.105z" fill="#fff" stroke="#101737" stroke-linejoin="bevel"/><path d="M287.835.158l-11.122 8.625" stroke="#101737" stroke-linejoin="bevel"/><path d="M55.494 13.65v126.27l-.023.036-3.246 4.886-22.021-.029a4.876 4.876 0 0 1-3.443-1.423 4.853 4.853 0 0 1-1.428-3.434V13.65h30.161z" fill="#fff" stroke="#101737" stroke-linejoin="bevel"/><path d="M61.16 139.943a4.851 4.851 0 0 1-1.426 3.434 4.872 4.872 0 0 1-3.442 1.422l-.076.037h-3.991l-22.021-.03a4.876 4.876 0 0 0 3.44-1.423 4.852 4.852 0 0 0 1.424-3.434l26.091-.006z" fill="#101737" stroke="#101737" stroke-linejoin="bevel"/><path d="M28.507 20.552h24.262M28.507 27.99h24.262M28.507 35.428h24.262M28.507 42.866h24.262M28.507 50.304h24.262M28.507 57.739h24.262M28.507 65.177h24.262" stroke="#101737" stroke-linejoin="bevel"/><path d="M40.282 70.78H28.507v11.75h11.775V70.78z" fill="#FDDA00" stroke="#101737" stroke-linejoin="bevel"/><path d="M44.635 114.658l4.132 3.482a6.346 6.346 0 0 1 .757 8.953l-3.49 4.122-8.996-7.58 7.597-8.977z" fill="#FFF6FF" stroke="#101737" stroke-linejoin="bevel"/><path d="M41.096 97.418c4.073 0 7.375-3.294 7.375-7.359 0-4.064-3.302-7.359-7.375-7.359-4.074 0-7.376 3.295-7.376 7.36 0 4.064 3.302 7.358 7.376 7.358z" fill="#FD6EFF" stroke="#101737" stroke-linejoin="bevel"/><path d="M43.759 105.935a2.656 2.656 0 0 0 2.66-2.653 2.657 2.657 0 0 0-2.66-2.654 2.657 2.657 0 0 0-2.66 2.654 2.656 2.656 0 0 0 2.66 2.653z" fill="#FDDA00" stroke="#101737" stroke-linejoin="bevel"/><path d="M40.486 97.593l.689 5.692.685 5.689-5.282-2.253-5.28-2.252 4.594-3.437 4.594-3.44z" fill="#FFF6FF" stroke="#101737" stroke-linejoin="bevel"/><path d="M37.032 107.063h-5.737v21.617h5.737v-21.617z" fill="#FD6EFF" stroke="#101737" stroke-linejoin="bevel"/></g><defs><clipPath id="clip0"><path fill="#fff" d="M0 0h288v145H0z"/></clipPath></defs></svg>