<?xml version="1.0" standalone="no"?>
<!DOCTYPE svg PUBLIC "-//W3C//DTD SVG 20010904//EN"
 "http://www.w3.org/TR/2001/REC-SVG-20010904/DTD/svg10.dtd">
<svg version="1.0" xmlns="http://www.w3.org/2000/svg"
 width="840.000000pt" height="859.000000pt" viewBox="0 0 840.000000 859.000000"
 preserveAspectRatio="xMidYMid meet">
<g transform="translate(0.000000,859.000000) scale(0.100000,-0.100000)"
fill="#000000" stroke="none">
<path d="M5050 8564 c-516 -49 -886 -203 -1193 -494 -266 -252 -434 -566 -511
-955 -46 -232 -48 -271 -53 -987 l-5 -688 -649 0 -649 0 2 -757 3 -758 605 -1
c333 0 624 -1 648 -2 l42 -2 0 -1945 0 -1945 785 0 785 0 0 1944 0 1943 133 6
c72 3 363 4 645 3 282 -1 516 1 521 4 4 3 15 66 25 140 9 74 21 167 26 205 5
39 23 171 39 295 16 124 48 363 70 533 23 169 41 314 41 322 0 13 -97 15 -747
17 l-748 3 -3 525 c-2 434 0 544 13 633 45 308 156 445 420 519 77 21 100 22
598 26 l517 3 0 680 c0 373 -3 679 -7 679 -5 0 -35 5 -68 10 -132 21 -510 41
-865 44 -206 2 -395 2 -420 0z"/>
</g>
</svg>
