<?xml version="1.0" standalone="no"?>
<!DOCTYPE svg PUBLIC "-//W3C//DTD SVG 20010904//EN"
 "http://www.w3.org/TR/2001/REC-SVG-20010904/DTD/svg10.dtd">
<svg version="1.0" xmlns="http://www.w3.org/2000/svg"
 width="225.000000pt" height="225.000000pt" viewBox="0 0 225.000000 225.000000"
 preserveAspectRatio="xMidYMid meet">

<g transform="translate(0.000000,225.000000) scale(0.100000,-0.100000)"
fill="#000000" stroke="none">
<path d="M990 2099 c-231 -30 -483 -172 -628 -356 -315 -396 -286 -958 68
-1313 425 -424 1130 -370 1488 115 140 190 210 450 184 683 -63 554 -559 942
-1112 871z m25 -524 c59 -16 153 -63 174 -89 10 -12 -21 -55 -99 -140 -5 -5
-20 1 -36 13 -33 26 -114 51 -165 51 -100 0 -215 -74 -260 -168 -18 -35 -23
-64 -23 -117 0 -89 27 -147 96 -210 123 -110 321 -96 406 29 51 76 50 76 -93
76 l-125 0 0 90 0 90 226 0 227 0 -6 -97 c-6 -121 -25 -184 -80 -264 -73 -109
-182 -167 -331 -176 -143 -10 -257 31 -363 131 -92 85 -134 176 -141 301 -8
152 36 264 143 363 125 117 287 159 450 117z m685 -305 l0 -70 65 0 65 0 0
-55 0 -55 -65 0 -64 0 -3 -67 -3 -68 -55 0 -55 0 -3 68 -3 67 -64 0 -65 0 0
55 0 55 65 0 65 0 0 70 0 70 60 0 60 0 0 -70z"/>
</g>
</svg>
