<?xml version="1.0" standalone="no"?>
<!DOCTYPE svg PUBLIC "-//W3C//DTD SVG 20010904//EN"
 "http://www.w3.org/TR/2001/REC-SVG-20010904/DTD/svg10.dtd">
<svg version="1.0" xmlns="http://www.w3.org/2000/svg"
 width="980.000000pt" height="980.000000pt" viewBox="0 0 980.000000 980.000000"
 preserveAspectRatio="xMidYMid meet">
<g transform="translate(0.000000,980.000000) scale(0.100000,-0.100000)"
fill="#000000" stroke="none">
<path d="M1980 9793 c-102 -8 -270 -36 -376 -63 -915 -236 -1508 -1031 -1593
-2136 -15 -195 -15 -5432 0 -5611 87 -1037 684 -1710 1696 -1912 348 -70 117
-65 3198 -69 2017 -2 2814 0 2905 8 273 25 506 90 755 210 604 293 1044 869
1185 1555 51 246 50 176 50 3050 0 1691 -4 2722 -10 2795 -46 537 -213 992
-502 1377 -279 370 -682 647 -1098 753 -202 52 -78 50 -3230 48 -1614 -1
-2955 -3 -2980 -5z m332 -1405 c-2 -552 0 -1026 3 -1054 13 -105 86 -176 190
-182 94 -6 164 36 200 120 13 33 15 161 15 1078 l0 1040 2633 -2 2632 -3 103
-28 c311 -82 591 -262 804 -517 205 -244 340 -512 423 -834 62 -240 67 -304
72 -803 l5 -453 -1307 0 -1306 0 -112 113 c-374 377 -826 613 -1357 709 -146
26 -505 36 -672 19 -564 -58 -1095 -316 -1508 -731 l-115 -115 -1303 3 -1304
2 5 433 c5 476 13 560 77 824 77 311 227 620 397 820 l48 56 5 -804 5 -804 23
-33 c13 -17 40 -44 59 -60 32 -24 45 -27 112 -27 85 0 118 16 169 82 l27 36 3
964 2 963 58 29 c56 28 195 81 212 81 6 0 11 -407 12 -1002 3 -1091 0 -1032
61 -1097 98 -103 265 -75 331 56 14 29 16 134 16 1078 l0 1045 143 0 142 0 -3
-1002z m2888 -1214 c675 -97 1266 -530 1565 -1149 146 -300 207 -572 207 -910
-1 -393 -103 -754 -308 -1086 -279 -451 -725 -780 -1239 -914 -180 -47 -325
-65 -525 -65 -256 0 -452 33 -686 114 -661 230 -1175 799 -1333 1476 -55 236
-70 543 -36 770 144 979 937 1714 1925 1784 93 6 319 -4 430 -20z m-2480 -858
c0 -2 -29 -64 -64 -137 -75 -155 -125 -295 -166 -461 -57 -231 -65 -309 -65
-603 0 -302 13 -406 80 -651 242 -880 960 -1564 1855 -1768 191 -43 280 -51
550 -50 240 0 278 3 410 27 521 94 975 332 1342 703 367 371 596 817 690 1341
20 112 23 161 23 398 0 293 -8 372 -65 603 -39 159 -90 302 -165 460 l-64 132
1155 0 1154 0 0 -2094 c0 -2253 1 -2194 -51 -2416 -101 -435 -338 -803 -676
-1053 -208 -154 -447 -256 -733 -314 -79 -16 -287 -17 -2860 -21 -1984 -2
-2816 0 -2919 8 -937 73 -1509 502 -1686 1265 -52 226 -49 86 -52 2448 l-3
2187 1155 0 c635 0 1155 -2 1155 -4z"/>
<path d="M7230 8837 c-176 -39 -317 -185 -349 -361 -7 -36 -11 -202 -11 -411
0 -209 4 -375 11 -411 32 -176 167 -318 340 -359 95 -22 770 -22 869 1 170 38
304 176 340 350 8 35 10 189 8 451 -3 388 -4 399 -26 455 -51 126 -150 223
-277 270 -58 22 -72 23 -455 25 -282 1 -411 -2 -450 -10z"/>
<path d="M4763 6679 c-615 -52 -1149 -473 -1343 -1058 -66 -198 -75 -258 -75
-501 0 -235 9 -297 67 -480 152 -476 532 -856 1008 -1008 183 -58 245 -67 480
-67 188 0 228 3 318 23 151 34 242 66 377 133 434 214 735 607 841 1099 27
122 27 478 1 600 -117 542 -467 959 -973 1160 -206 82 -467 119 -701 99z m312
-794 c40 -8 115 -37 175 -66 90 -45 117 -64 196 -143 154 -154 222 -307 231
-521 4 -100 2 -135 -16 -210 -82 -342 -370 -584 -720 -602 -357 -19 -667 195
-788 542 -25 73 -27 93 -28 230 0 172 15 239 87 378 44 84 146 202 226 261 69
50 178 102 262 125 92 24 272 27 375 6z"/>
</g>
</svg>
