<?xml version="1.0" encoding="UTF-8"?>
<svg width="21px" height="18px" viewBox="0 0 21 18" version="1.1" xmlns="http://www.w3.org/2000/svg" xmlns:xlink="http://www.w3.org/1999/xlink">
    <!-- Generator: Sketch 53.2 (72643) - https://sketchapp.com -->
    <title>Browse Icon</title>
    <desc>Created with Sketch.</desc>
    <g id="New-Homepage-2" stroke="none" stroke-width="1" fill="none" fill-rule="evenodd">
        <g id="Home" transform="translate(-697.000000, -2869.000000)" fill="#49E287">
            <path d="M717.633365,2874.63693 C717.81992,2874.63693 717.970958,2874.78659 717.970958,2874.97105 L717.970958,2885.55046 C717.970958,2886.15231 717.478201,2886.64 716.870103,2886.64 L698.100676,2886.64 C697.492936,2886.64 697,2886.15231 697,2885.55046 L697,2874.97105 C697,2874.78659 697.151038,2874.63693 697.337593,2874.63693 L717.633365,2874.63693 Z M716.482804,2870.9664 C717.320688,2870.9664 718,2871.63873 718,2872.468 L718,2873.85048 L697.028862,2873.85048 L697.028862,2871.84041 L697.028862,2870.9664 L697.028862,2870.51971 C697.028862,2869.68032 697.716246,2869 698.563996,2869 L703.574618,2869 C703.8749,2869 704.159756,2869.13226 704.351513,2869.36111 L705.699195,2870.9664 L716.482804,2870.9664 Z" id="Browse-Icon"/>
        </g>
    </g>
</svg>