<?xml version="1.0" encoding="UTF-8"?>
<svg width="28px" height="28px" viewBox="0 0 28 28" version="1.1" xmlns="http://www.w3.org/2000/svg" xmlns:xlink="http://www.w3.org/1999/xlink">
    <!-- Generator: Sketch 53.2 (72643) - https://sketchapp.com -->
    <title>Group 20</title>
    <desc>Created with Sketch.</desc>
    <g id="New-Homepage-2" stroke="none" stroke-width="1" fill="none" fill-rule="evenodd">
        <g id="Home" transform="translate(-25.000000, -2324.000000)">
            <g id="Group-20" transform="translate(25.000000, 2324.000000)">
                <rect id="Rectangle" fill="#49E287" x="0" y="0" width="28" height="28" rx="6"/>
                <g id="Group-11" transform="translate(4.000000, 8.000000)" fill="#FFFFFF" fill-rule="nonzero">
                    <path d="M-5.5067062e-14,7.794 C-5.5067062e-14,7.002 0.585,6.561 1.323,6.453 L2.412,6.291 C2.664,6.255 2.745,6.129 2.745,5.976 C2.745,5.661 2.502,5.4 1.998,5.4 C1.476,5.4 1.188,5.733 1.152,6.12 L0.09,5.895 C0.162,5.202 0.801,4.437 1.989,4.437 C3.393,4.437 3.915,5.229 3.915,6.12 L3.915,8.298 C3.915,8.532 3.942,8.847 3.969,9 L2.871,9 C2.844,8.883 2.826,8.64 2.826,8.469 C2.601,8.82 2.178,9.126 1.521,9.126 C0.576,9.126 -5.5067062e-14,8.487 -5.5067062e-14,7.794 Z M1.773,8.235 C2.277,8.235 2.745,7.992 2.745,7.209 L2.745,7.011 L1.746,7.164 C1.44,7.209 1.197,7.38 1.197,7.722 C1.197,7.983 1.386,8.235 1.773,8.235 Z M7.956,9 L9.099,9 C9.081,8.847 9.054,8.541 9.054,8.199 L9.054,4.572 L7.857,4.572 L7.857,7.146 C7.857,7.659 7.551,8.019 7.02,8.019 C6.462,8.019 6.21,7.623 6.21,7.128 L6.21,4.572 L5.013,4.572 L5.013,7.371 C5.013,8.334 5.625,9.117 6.696,9.117 C7.164,9.117 7.677,8.937 7.92,8.523 C7.92,8.703 7.938,8.91 7.956,9 Z M11.808,3.249 L10.728,3.249 L10.728,3.87 C10.728,4.266 10.512,4.572 10.044,4.572 L9.819,4.572 L9.819,5.634 L10.62,5.634 L10.62,7.695 C10.62,8.55 11.16,9.063 12.024,9.063 C12.375,9.063 12.591,9 12.699,8.955 L12.699,7.965 C12.636,7.983 12.474,8.001 12.33,8.001 C11.988,8.001 11.808,7.875 11.808,7.488 L11.808,5.634 L12.699,5.634 L12.699,4.572 L11.808,4.572 L11.808,3.249 Z M15.66,8.046 C16.245,8.046 16.785,7.623 16.785,6.786 C16.785,5.949 16.245,5.526 15.66,5.526 C15.075,5.526 14.535,5.949 14.535,6.786 C14.535,7.614 15.075,8.046 15.66,8.046 Z M15.66,4.437 C16.983,4.437 17.982,5.418 17.982,6.786 C17.982,8.145 16.983,9.135 15.66,9.135 C14.337,9.135 13.338,8.145 13.338,6.786 C13.338,5.418 14.337,4.437 15.66,4.437 Z M18.631,0 L20.631,0 L20.631,12 L18.631,12 L18.631,0 Z" id="Combined-Shape"/>
                </g>
            </g>
        </g>
    </g>
</svg>