<?xml version="1.0" encoding="UTF-8"?>
<svg width="14px" height="19px" viewBox="0 0 14 19" version="1.1" xmlns="http://www.w3.org/2000/svg" xmlns:xlink="http://www.w3.org/1999/xlink">
    <!-- Generator: Sketch 52.6 (67491) - http://www.bohemiancoding.com/sketch -->
    <title>ic_lock_white_24px copy</title>
    <desc>Created with Sketch.</desc>
    <g id="New-Homepage-2" stroke="none" stroke-width="1" fill="none" fill-rule="evenodd">
        <g id="Home" transform="translate(-699.000000, -2647.000000)">
            <g id="ic_lock_white_24px-copy" transform="translate(696.000000, 2647.000000)">
                <polygon id="Shape" points="0 0 20 0 20 20 0 20"/>
                <path d="M15,6.66666667 C15.9166667,6.66666667 16.6666667,7.41666667 16.6666667,8.33333333 L16.6666667,16.6666667 C16.6666667,17.5833333 15.9166667,18.3333333 15,18.3333333 L5,18.3333333 C4.08333333,18.3333333 3.33333333,17.5833333 3.33333333,16.6666667 L3.33333333,8.33333333 C3.33333333,7.41666667 4.08333333,6.66666667 5,6.66666667 L5.83333333,6.66666667 L5.83333333,5 C5.83333333,2.7 7.7,0.833333333 10,0.833333333 C12.3,0.833333333 14.1666667,2.7 14.1666667,5 L14.1666667,6.66666667 L15,6.66666667 Z M12.5833333,6.66666667 L12.5833333,5 C12.5833333,3.575 11.425,2.41666667 10,2.41666667 C8.575,2.41666667 7.41666667,3.575 7.41666667,5 L7.41666667,6.66666667 L12.5833333,6.66666667 Z" id="Combined-Shape" fill="#42A1F5" fill-rule="nonzero"/>
            </g>
        </g>
    </g>
</svg>