<?xml version="1.0" encoding="UTF-8"?>
<svg width="21px" height="19px" viewBox="0 0 21 19" version="1.1" xmlns="http://www.w3.org/2000/svg" xmlns:xlink="http://www.w3.org/1999/xlink">
    <!-- Generator: Sketch 53.2 (72643) - https://sketchapp.com -->
    <title>Settings icon Copy 2</title>
    <desc>Created with Sketch.</desc>
    <g id="New-Homepage-2" stroke="none" stroke-width="1" fill="none" fill-rule="evenodd">
        <g id="Home" transform="translate(-697.000000, -2292.000000)" fill="#49E287" fill-rule="nonzero">
            <g id="Settings-icon-Copy-2" transform="translate(697.000000, 2292.000000)">
                <g id="snippets">
                    <g id="Layer_1">
                        <path d="M20.405,9.87 C20.23,10.8266667 19.6116667,11.0366667 18.7716667,11.2933333 C16.7066667,11.8183333 17.885,14.28 17.605,15.7966667 C17.0978144,17.6214199 15.4024584,18.8579189 13.51,18.7833333 C13.1207896,18.7173795 12.7857102,18.4712165 12.6064157,18.1195234 C12.4271211,17.7678302 12.424742,17.3520553 12.6,16.9983333 C12.9733333,15.9366667 14.0466667,16.205 14.595,15.4466667 C15.1433333,14.6883333 14.735,13.3466667 14.7466667,12.5533333 C14.7375632,12.0381828 14.8164745,11.5252589 14.98,11.0366667 C15.0573798,10.8292076 15.155077,10.6299053 15.2716667,10.4416667 C15.3533333,10.3016667 16.03,9.64833333 16.0416667,9.54333333 C16.0533333,9.43833333 15.1083333,8.225 15.015,7.95666667 C14.8788841,7.58123187 14.7964049,7.18847411 14.77,6.79 C14.7,5.95 15.1666667,4.35166667 14.595,3.61666667 C14.0233333,2.88166667 13.1016667,3.16166667 12.6816667,2.205 C12.4598935,1.80045972 12.4479475,1.31352253 12.6496167,0.898593976 C12.8512859,0.483665422 13.2415532,0.192217374 13.6966667,0.116666667 C15.4466667,-0.198333333 17.3483333,1.63333333 17.6166667,3.255 C17.7916667,4.305 17.4066667,5.355 17.6166667,6.41666667 C17.8266667,7.47833333 18.1183333,7.58333333 19.04,7.81666667 C19.7452441,7.94378176 20.2955074,8.49870829 20.4166667,9.205 L20.405,9.87 Z M0.595,9.87 L0.583333333,9.205 C0.708909575,8.50323312 1.25823312,7.95390957 1.96,7.82833333 C2.88166667,7.595 3.17333333,7.49 3.38333333,6.42833333 C3.59333333,5.36666667 3.20833333,4.31666667 3.38333333,3.26666667 C3.65166667,1.645 5.55333333,-0.175 7.30333333,0.116666667 C7.75844679,0.192217374 8.14871409,0.483665422 8.35038327,0.898593976 C8.55205246,1.31352253 8.54010647,1.80045972 8.31833333,2.205 C7.89833333,3.16166667 6.97666667,2.88166667 6.405,3.61666667 C5.83333333,4.35166667 6.3,5.95 6.23,6.79 C6.20359506,7.18847411 6.12111593,7.58123187 5.985,7.95666667 C5.89166667,8.225 4.94666667,9.43833333 4.95833333,9.54333333 C4.97,9.64833333 5.64666667,10.3016667 5.72833333,10.4416667 C5.84492298,10.6299053 5.94262018,10.8292076 6.02,11.0366667 C6.18352545,11.5252589 6.26243682,12.0381828 6.25333333,12.5533333 C6.265,13.3466667 5.85666667,14.6883333 6.405,15.4466667 C6.95333333,16.205 8.02666667,15.9366667 8.4,16.9983333 C8.57525801,17.3520553 8.57287885,17.7678302 8.3935843,18.1195234 C8.21428976,18.4712165 7.87921036,18.7173795 7.49,18.7833333 C5.59754165,18.8579189 3.90218562,17.6214199 3.395,15.7966667 C3.115,14.28 4.29333333,11.8183333 2.22833333,11.2933333 C1.38833333,11.0366667 0.77,10.8266667 0.595,9.87 Z" id="Combined-Shape"/>
                    </g>
                </g>
            </g>
        </g>
    </g>
</svg>