<?xml version="1.0" encoding="UTF-8"?>
<svg width="13px" height="18px" viewBox="0 0 13 18" version="1.1" xmlns="http://www.w3.org/2000/svg" xmlns:xlink="http://www.w3.org/1999/xlink">
    <!-- Generator: Sketch 53.2 (72643) - https://sketchapp.com -->
    <title>Shape</title>
    <desc>Created with Sketch.</desc>
    <g id="New-Homepage-2" stroke="none" stroke-width="1" fill="none" fill-rule="evenodd">
        <g id="Home" transform="translate(-108.000000, -2869.000000)" fill="#49E287" fill-rule="nonzero">
            <path d="M111.280613,2876.06286 L111.280613,2872.85714 C111.280613,2871.67429 112.25128,2870.71429 113.44728,2870.71429 C114.64328,2870.71429 115.613946,2871.67429 115.613946,2872.85714 L115.613946,2876.06286 C116.662613,2875.36857 117.34728,2874.19429 117.34728,2872.85714 C117.34728,2870.72286 115.60528,2869 113.44728,2869 C111.28928,2869 109.54728,2870.72286 109.54728,2872.85714 C109.54728,2874.19429 110.231946,2875.36857 111.280613,2876.06286 Z M114.74728,2877.32382 L114.74728,2872.85714 C114.74728,2872.14571 114.166613,2871.57143 113.44728,2871.57143 C112.727946,2871.57143 112.14728,2872.14571 112.14728,2872.85714 L112.14728,2880.83393 C112.14728,2881.38621 111.699564,2881.83393 111.14728,2881.83393 C111.078987,2881.83393 111.010875,2881.82693 110.944008,2881.81305 L109.174613,2881.44571 C109.10528,2881.43714 109.044613,2881.42 108.966613,2881.42 C108.697946,2881.42 108.45528,2881.53143 108.281946,2881.70286 L108.281946,2881.70286 C107.905611,2882.07977 107.906078,2882.69039 108.282989,2883.06673 C108.284072,2883.06781 108.285157,2883.06889 108.286245,2883.06997 L111.878613,2886.62286 C112.112613,2886.85429 112.441946,2887 112.79728,2887 L118.681946,2887 C119.331946,2887 119.834613,2886.52857 119.929946,2885.90286 L120.579946,2881.38571 C120.588613,2881.32571 120.59728,2881.26571 120.59728,2881.21429 C120.59728,2880.68286 120.267946,2880.22 119.808613,2880.03143 L115.374799,2878.25186 C114.995717,2878.09971 114.74728,2877.7323 114.74728,2877.32382 Z" id="Shape"/>
        </g>
    </g>
</svg>