<svg xmlns="http://www.w3.org/2000/svg" width="20" height="17" viewBox="0 0 20 17">
  <path fill="#8FA1A8" d="M289.961053,890.920273 C289.22655,891.245965 288.437388,891.466121 287.609006,891.565107 C288.454464,891.058285 289.103821,890.25575 289.40963,889.299415 C288.618246,889.768772 287.74191,890.109552 286.809045,890.293177 C286.062066,889.497271 284.9977,889 283.819805,889 C281.558168,889 279.7246,890.833489 279.7246,893.095088 C279.7246,893.416062 279.760819,893.728616 279.830643,894.028382 C276.427135,893.857544 273.409552,892.227212 271.389747,889.749513 C271.037232,890.354347 270.835244,891.057817 270.835244,891.808343 C270.835244,893.229162 271.558207,894.482651 272.657076,895.217037 C271.98577,895.19575 271.354308,895.01154 270.802222,894.704795 C270.801832,894.721871 270.801832,894.739025 270.801832,894.756296 C270.801832,896.740468 272.213489,898.395595 274.086862,898.771891 C273.743275,898.865419 273.381442,898.915634 273.007953,898.915634 C272.744055,898.915634 272.487524,898.889903 272.237427,898.842027 C272.758596,900.468928 274.270955,901.653099 276.063002,901.686043 C274.661442,902.784522 272.895634,903.439142 270.97692,903.439142 C270.646355,903.439142 270.32039,903.419805 270,903.381793 C271.81232,904.54386 273.964951,905.221832 276.277622,905.221832 C283.810214,905.221832 287.929396,898.981598 287.929396,893.569903 C287.929396,893.392359 287.925341,893.21575 287.917505,893.040078 C288.717739,892.462729 289.412047,891.741481 289.961053,890.920273 Z" transform="translate(-270 -889)"/>
</svg>