<svg xmlns="http://www.w3.org/2000/svg" width="20" height="17" viewBox="0 0 20 17">
  <path fill="#8FA1A8" fill-rule="evenodd" d="M19.938846,3.11053784 C19.935024,3.10746703 19.931966,3.10343659 19.927189,3.10113349 L19.920309,3.09767883 L13.887095,0.0681335801 C13.846389,0.0475975431 13.803581,0.0337789018 13.7602,0.0226472181 C13.705735,0.00863665101 13.650123,0 13.59432,0 C13.363273,0 13.133373,0.116498826 13.008772,0.319556087 L9.535421,5.98826994 L13.894357,13.1017996 L19.957383,3.20726833 C19.977449,3.17425713 19.967894,3.13356891 19.938846,3.11053784 Z M7.62226,4.69699467 L7.62226,11.1497245 L13.33327,14.0174765 L7.62226,4.69699467 Z M14.191335,14.4483494 L18.89235,16.8088421 C19.50408,17.116115 20,16.9009664 20,16.3286443 L20,4.96876129 L14.191335,14.4483494 Z M6.630802,3.11975027 L0.738433,0.160833634 C0.631987,0.107478324 0.530701,0.0821441474 0.43897,0.0821441474 C0.180977,0.0821441474 0,0.282706376 0,0.619151913 L0,13.3956376 C0,13.737649 0.249202,14.142612 0.553825,14.2955767 L5.743689,16.9015422 C5.876698,16.9683323 6.003402,17 6.117874,17 C6.440461,17 6.66673,16.7493452 6.66673,16.3286443 L6.66673,3.17790372 C6.66673,3.15333725 6.65278,3.13069003 6.630802,3.11975027 Z"/>
</svg>