<?xml version="1.0" encoding="UTF-8"?>
<svg width="28px" height="28px" viewBox="0 0 28 28" version="1.1" xmlns="http://www.w3.org/2000/svg" xmlns:xlink="http://www.w3.org/1999/xlink">
    <!-- Generator: Sketch 52.4 (67378) - http://www.bohemiancoding.com/sketch -->
    <title>building_court</title>
    <desc>Created with Sketch.</desc>
    <defs>
        <rect id="path-1" x="0" y="0" width="28" height="28"/>
    </defs>
    <g id="building_court" stroke="none" stroke-width="1" fill="none" fill-rule="evenodd">
        <g>
            <mask id="mask-2" fill="white">
                <use xlink:href="#path-1"/>
            </mask>
            <use id="Rectangle-7" fill-opacity="0" fill="#FFFFFF" xlink:href="#path-1"/>
            <g id="building_court-outline" mask="url(#mask-2)" stroke-linecap="round" stroke-linejoin="round">
                <g transform="translate(2.000000, 2.400000)">
                    <rect id="Rectangle-path" stroke="#758693" x="2.12" y="19.88" width="19.76" height="2.08"/>
                    <path d="M24,23.6 L0,23.6" id="Shape" stroke="#758693"/>
                    <path d="M24,21.9926087 L0,21.9926087" id="Shape-Copy" stroke="#758693"/>
                    <g id="Group-3" stroke="none" fill-rule="evenodd" transform="translate(2.900000, 8.400000)">
                        <rect id="Rectangle-path" stroke="#758693" x="0.24" y="0.04" width="17.68" height="11.44"/>
                        <path d="M2.32,0.04 L2.32,11.48" id="Shape" stroke="#758693"/>
                        <path d="M7.52,0.04 L7.52,11.48" id="Shape" stroke="#758693"/>
                        <path d="M5.44,0.04 L5.44,11.48" id="Shape" stroke="#758693"/>
                        <path d="M10.64,0.04 L10.64,11.48" id="Shape" stroke="#758693"/>
                        <path d="M12.72,0.04 L12.72,11.48" id="Shape" stroke="#758693"/>
                        <path d="M15.84,0.04 L15.84,11.48" id="Shape" stroke="#758693"/>
                    </g>
                    <polygon id="Rectangle-path" stroke="#758693" points="1.08 6.36 22.92 6.36 22.92 8.44 1.08 8.44"/>
                    <polygon id="Shape" stroke="#758693" points="22.92 6.36 1.08 6.36 12 0.12"/>
                </g>
            </g>
        </g>
    </g>
</svg>