<?xml version="1.0" encoding="UTF-8"?>
<svg width="110px" height="25px" viewBox="0 0 110 25" version="1.1" xmlns="http://www.w3.org/2000/svg" xmlns:xlink="http://www.w3.org/1999/xlink">
    <!-- Generator: Sketch 55.2 (78181) - https://sketchapp.com -->
    <title>cnbc-25px</title>
    <desc>Created with Sketch.</desc>
    <defs>
        <polygon id="path-1" points="0 0 158 0 158 40 0 40"/>
    </defs>
    <g id="cnbc-25px" stroke="none" stroke-width="1" fill="none" fill-rule="evenodd">
        <g id="Plenty-of-Fish-logo">
            <mask id="mask-2" fill="white">
                <use xlink:href="#path-1"/>
            </mask>
            <use id="logo-container" fill="#07CAB2" opacity="0" xlink:href="#path-1"/>
        </g>
        <g id="cnbc">
            <polygon id="container" points="0 0 110 0 110 25 0 25"/>
            <g id="CNBC" transform="translate(1.000000, 5.000000)" fill-rule="nonzero">
                <g id="Group" transform="translate(32.000000, 3.000000)">
                    <g id="Shape">
                        <g id="path-1-link" fill="#FFFFFF">
                            <path d="M13.0647331,4.14455128 C12.7851075,2.8703818 11.6976742,2.5343371 10.4704283,2.4223222 C6.52459918,2.07227564 5.82553499,4.90065184 5.82553499,6.09081016 C5.82553499,8.13508205 6.44692538,9.81530553 10.3150807,9.81530553 C11.0296796,9.81530553 13.0025941,9.1152124 13.0025941,7.96705974 L18.5795729,7.96705974 C18.3620862,11.3555104 12.3967385,12.1816203 9.80243352,12.1816203 C4.41187183,12.1816203 -0.18641712,11.2154918 0.0310695199,6.13281574 C0.18641712,2.50633337 3.77494666,-0.0420055873 10.8898668,0.126016762 C14.8512305,0.210027936 18.6727815,1.40018624 18.6883163,4.14455128 L13.0647331,4.14455128 Z" id="path-1"/>
                        </g>
                        <g id="path-1-link" fill="#758693" fill-opacity="0.7">
                            <path d="M13.0647331,4.14455128 C12.7851075,2.8703818 11.6976742,2.5343371 10.4704283,2.4223222 C6.52459918,2.07227564 5.82553499,4.90065184 5.82553499,6.09081016 C5.82553499,8.13508205 6.44692538,9.81530553 10.3150807,9.81530553 C11.0296796,9.81530553 13.0025941,9.1152124 13.0025941,7.96705974 L18.5795729,7.96705974 C18.3620862,11.3555104 12.3967385,12.1816203 9.80243352,12.1816203 C4.41187183,12.1816203 -0.18641712,11.2154918 0.0310695199,6.13281574 C0.18641712,2.50633337 3.77494666,-0.0420055873 10.8898668,0.126016762 C14.8512305,0.210027936 18.6727815,1.40018624 18.6883163,4.14455128 L13.0647331,4.14455128 Z" id="path-1"/>
                        </g>
                    </g>
                    <g id="Shape" transform="translate(55.601802, 0.000000)">
                        <g id="path-2-link" fill="#FFFFFF">
                            <path d="M13.2793234,4.14455128 C12.9996978,2.8703818 11.9122645,2.5343371 10.6850185,2.4223222 C6.73918944,2.07227564 6.04012529,4.90065184 6.04012529,6.09081016 C6.04012529,8.13508205 6.6615157,9.81530553 10.5452057,9.81530553 C11.2598046,9.81530553 13.2327192,9.1152124 13.2327192,7.96705974 L18.809698,7.96705974 C18.5922113,11.3555104 12.6268636,12.1816203 10.0325586,12.1816203 C4.6419969,12.1816203 0.0437079489,11.2154918 0.261194578,6.13281574 C0.416542157,2.50633337 4.00507171,-0.0420055873 11.1199918,0.126016762 C15.0813556,0.210027936 18.9029065,1.40018624 18.9184413,4.14455128 L13.2793234,4.14455128 Z" id="path-2"/>
                        </g>
                        <g id="path-2-link" fill="#758693" fill-opacity="0.7">
                            <path d="M13.2793234,4.14455128 C12.9996978,2.8703818 11.9122645,2.5343371 10.6850185,2.4223222 C6.73918944,2.07227564 6.04012529,4.90065184 6.04012529,6.09081016 C6.04012529,8.13508205 6.6615157,9.81530553 10.5452057,9.81530553 C11.2598046,9.81530553 13.2327192,9.1152124 13.2327192,7.96705974 L18.809698,7.96705974 C18.5922113,11.3555104 12.6268636,12.1816203 10.0325586,12.1816203 C4.6419969,12.1816203 0.0437079489,11.2154918 0.261194578,6.13281574 C0.416542157,2.50633337 4.00507171,-0.0420055873 11.1199918,0.126016762 C15.0813556,0.210027936 18.9029065,1.40018624 18.9184413,4.14455128 L13.2793234,4.14455128 Z" id="path-2"/>
                        </g>
                    </g>
                    <g id="Shape" transform="translate(18.832868, 0.000000)">
                        <g id="path-3-link" fill="#FFFFFF">
                            <polygon id="path-3" points="0.834137609 0.364048423 8.07333576 0.364048423 14.2406355 8.65315097 14.3027745 8.65315097 14.3027745 0.364048423 18.9321329 0.364048423 18.9321329 11.8735793 12.00363 11.8735793 5.52563518 3.58447678 5.47903082 3.58447678 5.47903082 11.8735793 0.834137609 11.8735793"/>
                        </g>
                        <g id="path-3-link" fill="#758693" fill-opacity="0.7">
                            <polygon id="path-3" points="0.834137609 0.364048423 8.07333576 0.364048423 14.2406355 8.65315097 14.3027745 8.65315097 14.3027745 0.364048423 18.9321329 0.364048423 18.9321329 11.8735793 12.00363 11.8735793 5.52563518 3.58447678 5.47903082 3.58447678 5.47903082 11.8735793 0.834137609 11.8735793"/>
                        </g>
                    </g>
                    <g id="Shape" transform="translate(38.562540, 0.000000)">
                        <g id="path-4-link" fill="#FFFFFF">
                            <path d="M0.631659162,0.364048423 L9.42433328,0.364048423 C13.649788,0.364048423 16.1353496,1.49819928 16.1353496,3.20642649 C16.1353496,4.21456058 15.0945206,5.46072635 12.7798414,5.82477477 L12.7798414,5.8527785 C15.5760982,6.00679898 16.6013923,7.70102431 16.6013923,8.70915838 C16.6013923,10.7394285 14.1779698,11.8735793 9.45540276,11.8735793 L0.647193857,11.8735793 L0.647193857,0.364048423 L0.631659162,0.364048423 Z M5.72706042,4.83064254 L7.18732786,4.83064254 C9.42433328,4.83064254 10.6205097,4.66262019 10.6205097,3.76650099 C10.6205097,2.81437435 9.62628513,2.49233151 7.60676642,2.49233151 L5.72706042,2.49233151 L5.72706042,4.83064254 Z M5.72706042,9.46525901 L7.18732786,9.46525901 C9.89037602,9.46525901 10.8846007,9.1992236 10.8846007,8.30310435 C10.8846007,7.35097777 9.62628513,7.02893494 7.60676642,7.02893494 L5.72706042,7.02893494 L5.72706042,9.46525901 Z" id="path-4"/>
                        </g>
                        <g id="path-4-link" fill="#758693" fill-opacity="0.7">
                            <path d="M0.631659162,0.364048423 L9.42433328,0.364048423 C13.649788,0.364048423 16.1353496,1.49819928 16.1353496,3.20642649 C16.1353496,4.21456058 15.0945206,5.46072635 12.7798414,5.82477477 L12.7798414,5.8527785 C15.5760982,6.00679898 16.6013923,7.70102431 16.6013923,8.70915838 C16.6013923,10.7394285 14.1779698,11.8735793 9.45540276,11.8735793 L0.647193857,11.8735793 L0.647193857,0.364048423 L0.631659162,0.364048423 Z M5.72706042,4.83064254 L7.18732786,4.83064254 C9.42433328,4.83064254 10.6205097,4.66262019 10.6205097,3.76650099 C10.6205097,2.81437435 9.62628513,2.49233151 7.60676642,2.49233151 L5.72706042,2.49233151 L5.72706042,4.83064254 Z M5.72706042,9.46525901 L7.18732786,9.46525901 C9.89037602,9.46525901 10.8846007,9.1992236 10.8846007,8.30310435 C10.8846007,7.35097777 9.62628513,7.02893494 7.60676642,7.02893494 L5.72706042,7.02893494 L5.72706042,9.46525901 Z" id="path-4"/>
                        </g>
                    </g>
                </g>
                <g id="Group">
                    <g id="Shape" transform="translate(15.847458, 3.764706)">
                        <g id="path-5-link" fill="#FFFFFF">
                            <path d="M9.14960647,5.71994024 L0.768807712,10.9523287 L3.59470333,4.67949421 L4.93498509,1.75418205 C5.48401625,0.804209534 6.50133858,0.216131313 7.61554881,0.185973459 C8.68131522,0.185973459 9.63404554,0.668499172 10.2315207,1.52799811 C10.8451437,2.38749704 10.8774397,3.78983743 10.2638166,4.66441528 C9.98930108,5.10170422 9.58560164,5.46359849 9.14960647,5.71994024 Z" id="path-5"/>
                        </g>
                        <g id="path-5-link" fill="#758693" fill-opacity="0.7">
                            <path d="M9.14960647,5.71994024 L0.768807712,10.9523287 L3.59470333,4.67949421 L4.93498509,1.75418205 C5.48401625,0.804209534 6.50133858,0.216131313 7.61554881,0.185973459 C8.68131522,0.185973459 9.63404554,0.668499172 10.2315207,1.52799811 C10.8451437,2.38749704 10.8774397,3.78983743 10.2638166,4.66441528 C9.98930108,5.10170422 9.58560164,5.46359849 9.14960647,5.71994024 Z" id="path-5"/>
                        </g>
                    </g>
                    <g id="Shape" transform="translate(14.915254, 0.000000)">
                        <g id="path-6-link" fill="#FFFFFF">
                            <path d="M5.91563239,4.53875755 L1.76560301,13.6916673 L1.58797538,12.6964581 L0.344581339,5.18715149 C0.296137432,4.73478363 0.489913059,4.34273148 0.8936125,4.08638969 L1.49108747,3.75465326 C1.52338347,3.63402184 1.34575566,3.60386398 1.26501585,3.55862719 L0.102361712,3.54354825 C0.0216218051,2.45786539 0.538357059,1.47773502 1.52338347,0.889656802 C2.28233826,0.422210006 3.4449924,0.301578576 4.30083509,0.678551794 C5.39889723,1.1007618 6.17400002,2.2015236 6.19014802,3.31736433 C6.15785202,3.75465326 6.0771122,4.17686327 5.91563239,4.53875755 Z" id="path-6"/>
                        </g>
                        <g id="path-6-link" fill="#758693" fill-opacity="0.7">
                            <path d="M5.91563239,4.53875755 L1.76560301,13.6916673 L1.58797538,12.6964581 L0.344581339,5.18715149 C0.296137432,4.73478363 0.489913059,4.34273148 0.8936125,4.08638969 L1.49108747,3.75465326 C1.52338347,3.63402184 1.34575566,3.60386398 1.26501585,3.55862719 L0.102361712,3.54354825 C0.0216218051,2.45786539 0.538357059,1.47773502 1.52338347,0.889656802 C2.28233826,0.422210006 3.4449924,0.301578576 4.30083509,0.678551794 C5.39889723,1.1007618 6.17400002,2.2015236 6.19014802,3.31736433 C6.15785202,3.75465326 6.0771122,4.17686327 5.91563239,4.53875755 Z" id="path-6"/>
                        </g>
                    </g>
                    <g id="Shape" transform="translate(8.389831, 0.000000)">
                        <g id="path-7-link" fill="#FFFFFF">
                            <path d="M4.48010489,13.7369041 L0.394667443,4.55383648 C-0.0413278669,3.57370612 0.136299872,2.27691825 0.895254595,1.47773502 C1.70265336,0.648393937 2.83301159,0.286499647 3.99566573,0.572999293 C4.98069205,0.799183224 5.90112665,1.68884002 6.14334619,2.62373361 C6.25638209,2.97054897 6.24023409,3.4078379 6.22408609,3.78481112 L4.48010489,13.7369041 Z" id="path-7"/>
                        </g>
                        <g id="path-7-link" fill="#758693" fill-opacity="0.7">
                            <path d="M4.48010489,13.7369041 L0.394667443,4.55383648 C-0.0413278669,3.57370612 0.136299872,2.27691825 0.895254595,1.47773502 C1.70265336,0.648393937 2.83301159,0.286499647 3.99566573,0.572999293 C4.98069205,0.799183224 5.90112665,1.68884002 6.14334619,2.62373361 C6.25638209,2.97054897 6.24023409,3.4078379 6.22408609,3.78481112 L4.48010489,13.7369041 Z" id="path-7"/>
                        </g>
                    </g>
                    <g id="Shape" transform="translate(2.796610, 3.764706)">
                        <g id="path-8-link" fill="#FFFFFF">
                            <path d="M1.33727121,5.38820391 C0.497576564,4.7096521 0.126173151,3.80491636 0.239208974,2.74939135 C0.368392769,1.69386632 1.25653135,0.653420245 2.32229764,0.336762739 C3.42035988,0.0201052424 4.61530997,0.276447021 5.40656071,1.03039346 C5.74566813,1.33197205 5.95559178,1.67878741 6.11707153,2.04068168 L10.0571772,10.9523287 L1.33727121,5.38820391 Z" id="path-8"/>
                        </g>
                        <g id="path-8-link" fill="#758693" fill-opacity="0.7">
                            <path d="M1.33727121,5.38820391 C0.497576564,4.7096521 0.126173151,3.80491636 0.239208974,2.74939135 C0.368392769,1.69386632 1.25653135,0.653420245 2.32229764,0.336762739 C3.42035988,0.0201052424 4.61530997,0.276447021 5.40656071,1.03039346 C5.74566813,1.33197205 5.95559178,1.67878741 6.11707153,2.04068168 L10.0571772,10.9523287 L1.33727121,5.38820391 Z" id="path-8"/>
                        </g>
                    </g>
                    <g id="Shape" transform="translate(0.000000, 9.411765)">
                        <g id="path-9-link" fill="#FFFFFF">
                            <path d="M3.24574282,6.25524226 C2.14768056,6.13461082 1.30798591,5.59176932 0.807398709,4.65687576 C0.290663535,3.70690334 0.419847328,2.37995755 1.11421022,1.5355376 C1.87316501,0.691117553 2.97122725,0.253828612 4.08543747,0.464933647 C4.53758074,0.540328282 4.90898415,0.721275482 5.28038755,0.917301459 L13.774222,6.24016339 L3.24574282,6.25524226 Z" id="path-9"/>
                        </g>
                        <g id="path-9-link" fill="#758693" fill-opacity="0.7">
                            <path d="M3.24574282,6.25524226 C2.14768056,6.13461082 1.30798591,5.59176932 0.807398709,4.65687576 C0.290663535,3.70690334 0.419847328,2.37995755 1.11421022,1.5355376 C1.87316501,0.691117553 2.97122725,0.253828612 4.08543747,0.464933647 C4.53758074,0.540328282 4.90898415,0.721275482 5.28038755,0.917301459 L13.774222,6.24016339 L3.24574282,6.25524226 Z" id="path-9"/>
                        </g>
                    </g>
                    <g id="Shape" transform="translate(14.915254, 9.411765)">
                        <g id="path-10-link" fill="#FFFFFF">
                            <path d="M11.3736477,6.25524226 C12.4717099,6.13461082 13.3114046,5.59176932 13.8119918,4.65687576 C14.328727,3.70690334 14.1995432,2.37995755 13.5051803,1.5355376 C12.7462255,0.691117553 11.6481633,0.253828612 10.533953,0.464933647 C10.0818099,0.540328282 9.71040642,0.721275482 9.33900298,0.917301459 L0.845168593,6.24016339 L11.3736477,6.25524226 Z" id="path-10"/>
                        </g>
                        <g id="path-10-link" fill="#758693" fill-opacity="0.7">
                            <path d="M11.3736477,6.25524226 C12.4717099,6.13461082 13.3114046,5.59176932 13.8119918,4.65687576 C14.328727,3.70690334 14.1995432,2.37995755 13.5051803,1.5355376 C12.7462255,0.691117553 11.6481633,0.253828612 10.533953,0.464933647 C10.0818099,0.540328282 9.71040642,0.721275482 9.33900298,0.917301459 L0.845168593,6.24016339 L11.3736477,6.25524226 Z" id="path-10"/>
                        </g>
                    </g>
                </g>
            </g>
        </g>
    </g>
</svg>