<?xml version="1.0" encoding="UTF-8"?>
<svg width="57px" height="25px" viewBox="0 0 57 25" version="1.1" xmlns="http://www.w3.org/2000/svg" xmlns:xlink="http://www.w3.org/1999/xlink">
    <!-- Generator: Sketch 55.2 (78181) - https://sketchapp.com -->
    <title>forbes-25px</title>
    <desc>Created with Sketch.</desc>
    <g id="forbes-25px" stroke="none" stroke-width="1" fill="none" fill-rule="evenodd">
        <g id="forbes">
            <polygon id="container" points="0 0 57 0 57 25 0 25"/>
            <g id="path2995" transform="translate(1.000000, 5.500000)" fill-rule="nonzero">
                <g id="path-1-link" fill="#FFFFFF">
                    <path d="M13.6631213,13.9607591 C12.7063865,13.8261144 11.8643018,13.4298744 11.2238429,12.8143559 C10.6901274,12.2988591 10.3422237,11.7333515 10.0892029,10.9562593 C9.68990462,9.74445713 9.68990462,8.18642587 10.0892029,7.00155273 C10.476641,5.85130247 11.3424464,4.8510848 12.4098778,4.33174107 C13.8845144,3.6123538 15.9561219,3.65851767 17.320062,4.4394568 C18.5495848,5.14345613 19.2928333,6.39372813 19.4984126,8.09794513 C19.5616678,8.62113587 19.5221333,9.72137527 19.4193437,10.1753201 C19.0121384,12.0372637 17.8261035,13.3336996 16.0865858,13.8261144 C15.9007736,13.8799723 15.6082184,13.9415242 15.4421735,13.9646061 C15.0903165,14.01077 14.0070714,14.01077 13.6631213,13.9607591 Z M15.0982234,13.2144429 C15.3789183,13.1336561 15.7228684,12.8182029 15.9086805,12.4758207 C16.2882117,11.7679743 16.45821,10.7215929 16.4622318,9.0596928 C16.4661169,6.97847073 16.1300737,5.65125893 15.4224063,4.9588006 C15.1258976,4.66642927 14.9124113,4.57794847 14.5328801,4.57794847 C13.6907954,4.57794847 13.1531263,5.4358274 12.9435935,7.1246564 C12.8447572,7.9017486 12.8447572,9.74830413 12.9435935,10.4253745 C13.2440556,12.5258315 14.0149783,13.5260491 15.0982234,13.2144429 Z M30.6431866,13.9607591 C30.2517951,13.9222893 29.0539,13.7260927 28.6348343,13.6337649 L28.3462325,13.5683661 L28.3699531,12.0641926 C28.4253015,8.44032733 28.4292549,6.462974 28.3976273,4.53947853 C28.3620463,2.65445307 28.3541394,2.45440953 28.2790238,2.1774262 C28.1841411,1.823503 28.0497238,1.5772956 27.8836788,1.46573287 C27.8204238,1.423416 27.6464719,1.35801713 27.5001943,1.3272412 C27.0060132,1.21952547 27.0336873,1.2387604 27.0218269,1.01948193 C27.01392,0.892531267 27.0297338,0.811744467 27.0613614,0.784815533 C27.0969425,0.7463456 31.1334144,-0.00381761333 31.2638781,8.96683912e-10 C31.2994592,8.96683912e-10 31.3073661,0.50398518 31.2875989,2.23128407 C31.2757386,3.45847413 31.271785,4.46253873 31.2836454,4.46253873 C31.2955058,4.46253873 31.4417834,4.40098693 31.6117817,4.32404707 C32.1217767,4.0932276 32.5922372,3.99705287 33.2722305,3.97397093 C33.7268772,3.95858293 33.93641,3.97012393 34.1696635,4.0162878 C35.6917416,4.32404707 36.8184747,5.5358492 37.2138196,7.293924 C37.3166093,7.75171593 37.3561438,8.8904252 37.2849818,9.45977987 C37.2256799,9.94450067 37.0596351,10.6023361 36.8896367,11.0255051 C36.2373176,12.6297003 34.8417499,13.6760818 32.9875822,13.9492181 C32.5606097,14.01077 31.2164368,14.018464 30.6431866,13.9607591 Z M32.2285199,13.1952079 C32.5171217,13.1413501 32.7385148,13.0297873 32.9796753,12.8220499 C33.5805996,12.2950121 34.0312928,11.2140077 34.209198,9.86756087 C34.2803601,9.3212882 34.2724532,8.07486313 34.1933842,7.61707127 C33.9759446,6.3821872 33.5094374,5.57047213 32.8294441,5.24347787 C32.5487492,5.1088332 32.5052613,5.09729227 32.1692181,5.09729227 C31.9320112,5.09729227 31.7224783,5.1203742 31.5485266,5.17423207 L31.2875989,5.25117187 L31.2678316,6.65532353 C31.2441109,8.45571527 31.3034127,12.9643885 31.3548075,13.0951862 C31.3864351,13.175973 31.4220162,13.1952079 31.5841076,13.2067489 C31.9557318,13.2336779 32.0189871,13.2336779 32.2285199,13.1952079 Z M42.0093538,13.9415242 C40.0484429,13.599142 38.6449683,12.2450012 38.1863681,10.2522599 C38.1270665,9.9945116 38.0993923,9.70983427 38.0875319,9.1558676 C38.0638113,8.27875367 38.1389268,7.73632793 38.3682269,7.0592576 C38.8149667,5.75897467 39.6135635,4.83954387 40.7758776,4.28942413 C42.0014469,3.70852853 43.6816629,3.67005867 44.764908,4.1970964 C45.986524,4.79337993 46.7060517,5.98210013 46.8879104,7.713246 C46.9116311,7.94791247 46.9274449,8.2210488 46.919538,8.32876453 L46.9076777,8.52111413 L43.9821251,8.53265507 L41.0565724,8.544196 L41.0684328,8.87888427 C41.0961069,9.6598234 41.2661053,10.3484347 41.5863346,10.9447183 C41.7326122,11.2178547 41.8472624,11.3640403 42.1279572,11.6410237 C42.7605092,12.2603892 43.3891076,12.5027497 44.3814234,12.5027497 C45.1009512,12.5027497 45.6188531,12.3642579 46.1604757,12.0218758 C46.3107068,11.9257009 46.4648913,11.8487611 46.5004724,11.8487611 C46.5834948,11.8487611 46.7732604,12.0872746 46.7732604,12.1911433 C46.7732604,12.360411 46.2079171,12.9066836 45.6544342,13.2721478 C45.1997875,13.5683661 44.4842131,13.8415025 43.8595682,13.9453711 C43.4207352,14.018464 42.4402798,14.018464 42.0093538,13.9415242 Z M43.2507369,7.67092913 L43.9386371,7.64784713 L43.9149164,7.17082027 C43.8279405,5.49353227 43.4049215,4.57794847 42.7209747,4.57794847 C41.9777263,4.57794847 41.3847088,5.50892027 41.1356414,7.0592576 C41.1040138,7.24776013 41.0802932,7.4747326 41.0802932,7.5593664 L41.0802932,7.713246 L41.8235416,7.70170507 C42.2267935,7.69785807 42.8712057,7.68247013 43.2507369,7.67092913 Z M49.9162526,13.9799941 C49.2125387,13.9069013 48.0897591,13.6683878 47.7181348,13.5106612 L47.5362761,13.4337214 L47.5125554,12.5566075 C47.5006951,12.0718866 47.4848813,11.4255921 47.4769743,11.1216799 L47.465114,10.5638662 L47.5758106,10.5138553 C47.6351124,10.4869264 47.7576693,10.4599975 47.8446452,10.4561505 L48.0067366,10.4484565 L48.1451073,10.7754507 C48.678823,12.0526517 49.303468,12.7374161 50.1178786,12.9490005 C50.4302011,13.0297873 51.0113582,13.0297873 51.2446117,12.9490005 C51.8890239,12.7258751 52.2448343,12.2526952 52.2487878,11.6025538 C52.2527412,10.8331556 51.8178618,10.4638444 50.1771803,9.840632 C49.1611438,9.45208587 48.8053334,9.25588933 48.3823143,8.83272033 C47.9276676,8.37877547 47.7062745,7.8632786 47.6667399,7.14389133 C47.6153451,6.27447147 47.89604,5.5396962 48.5167316,4.91648367 C49.1413766,4.28942413 49.9518337,3.947042 51.0548461,3.8508672 C52.0273946,3.7662334 53.5178451,3.96627693 54.2966747,4.2855772 L54.4389988,4.343282 L54.4627195,5.12806813 C54.4785333,5.55893113 54.4903936,6.13597973 54.4943472,6.41296313 L54.502254,6.91307193 L54.3124885,6.98231773 C54.0080728,7.09003347 53.9883056,7.07849253 53.8222606,6.64378253 C53.3518003,5.42813347 52.8022708,4.8510848 51.9483257,4.67412327 C51.4264704,4.56640753 50.9915909,4.6818172 50.6753149,5.01265847 C50.4302011,5.2704068 50.3313648,5.49737927 50.3076442,5.8782314 C50.2839235,6.2937064 50.359039,6.51683187 50.6199667,6.7938152 C50.940196,7.1361974 51.4660048,7.42856867 52.5136689,7.85558467 C53.7945866,8.37877547 54.4073712,8.8211794 54.739461,9.4674738 C54.9569008,9.8867958 55.0162024,10.2214841 54.9964352,10.8677785 C54.9806214,11.3524993 54.9648075,11.4525211 54.8501576,11.7756683 C54.4824868,12.8374378 53.6483089,13.5337431 52.3594844,13.8645843 C51.924605,13.9761471 51.8613498,13.9799941 50.9915909,13.9915351 C50.4815959,13.9915351 50.0032285,13.9876881 49.9162526,13.9799941 Z M0.0513948428,13.7491746 C0.0197672472,13.7376337 0.00395344944,13.6414589 0.00395344944,13.4644973 C0.00395344944,13.1451971 -0.0158137978,13.1605851 0.616738114,13.0451753 C1.10301239,12.9566945 1.27696417,12.8682137 1.49045043,12.5950774 C1.90556264,12.0641926 1.99649197,11.0408931 1.99649197,6.83228513 C1.99649197,2.88142553 1.91742298,2.04662853 1.49045043,1.43880393 C1.30068487,1.1695146 0.976502009,1.01948193 0.438832888,0.957930067 L0.0237206967,0.9040722 L0.0118603483,0.588618973 L0,0.273165727 L0.130463832,0.25008378 C0.201625922,0.238542807 2.71601977,0.230848827 5.71668789,0.238542807 L11.1724481,0.25008378 L11.1961688,0.403963413 C11.2119826,0.488597213 11.2317498,1.35801713 11.2475637,2.3313058 L11.2752379,4.1047686 L10.9905894,4.1932494 C10.5675704,4.32020007 10.5715238,4.32020007 10.3778048,3.82778527 C9.91129781,2.62367713 9.37362861,1.9312188 8.63828703,1.5772956 C8.13224548,1.3349352 7.89899204,1.30800627 6.46784329,1.30800627 L5.22250671,1.30800627 L5.20273946,1.5080498 C5.16320497,1.88505487 5.09994978,4.32404707 5.09994978,5.47045033 L5.09994978,6.6168536 L5.46366713,6.61300667 C5.66529305,6.61300667 6.060638,6.59761867 6.34528635,6.58223073 C6.77225889,6.55914873 6.8987693,6.5360668 7.07667448,6.45528 C7.51550739,6.25908347 7.81201606,5.82437353 7.99387478,5.1165272 L8.08875765,4.75106307 L8.41294042,4.73952207 L8.73712332,4.72798113 L8.73712332,7.04002267 L8.73712332,9.35206413 L8.41294042,9.34052313 L8.08875765,9.32898213 L7.99782819,8.963518 C7.82387643,8.27875367 7.49574012,7.7863388 7.08458137,7.60937727 C6.89481582,7.52859047 6.4283088,7.4824266 5.52296888,7.4554976 L5.09599633,7.4439566 L5.09599633,8.3095296 C5.09599633,9.25588933 5.15134462,10.5369373 5.21855327,11.2293956 C5.31343604,12.1988373 5.56645682,12.7335691 6.02505696,12.9259186 C6.11203284,12.9643885 6.3887743,13.0220934 6.63784162,13.0605633 C6.88690893,13.0951862 7.12411591,13.1413501 7.15969698,13.1605851 C7.25457972,13.2105959 7.26248661,13.7107047 7.16760387,13.7453276 C7.10039523,13.7761036 0.122556933,13.7761036 0.0513948428,13.7491746 Z M19.5419006,13.7414807 C19.5063195,13.7183987 19.4944592,13.6299179 19.5023661,13.4452623 L19.5142265,13.17982 L19.6525971,13.1528911 C19.7277128,13.1375031 19.8937576,13.1067271 20.0163146,13.0836452 C20.3997992,13.0143994 20.6172388,12.8105089 20.7437493,12.4142688 C20.8465389,12.0911216 20.8900269,11.0601281 20.8900269,8.98659993 C20.8939803,6.451433 20.838632,5.8551494 20.5737509,5.51276727 C20.4314268,5.32811167 20.328637,5.2781008 19.9807335,5.212702 C19.8107351,5.18192607 19.6288765,5.14730313 19.5814352,5.13576213 C19.5023661,5.1203742 19.4944592,5.09344527 19.4944592,4.90494273 C19.4944592,4.72028713 19.5063195,4.6895112 19.5814352,4.65873527 C19.7000386,4.6125714 23.617907,3.8508672 23.7404639,3.8508672 L23.8393002,3.8508672 L23.8195329,4.42022187 C23.8076725,4.73182813 23.7918588,5.185773 23.7839518,5.42813347 L23.7641846,5.8705374 L23.9065088,5.620483 C24.3611554,4.82415587 24.8711505,4.32789407 25.5471903,4.0278288 C25.9188146,3.8624082 26.1678819,3.81239733 26.626482,3.81239733 C27.172058,3.81239733 27.717634,3.98551187 27.717634,4.15862647 C27.717634,4.2740362 26.7569458,6.74380433 26.705551,6.76303927 C26.6778768,6.77458027 26.4920647,6.7014874 26.2904388,6.60915967 C25.8674197,6.41296313 25.4681214,6.31294133 25.0846368,6.31678833 C24.6023158,6.31678833 24.0686002,6.48990293 23.8551139,6.7130284 C23.7641846,6.80920313 23.7641846,6.81305013 23.7404639,8.22489573 C23.7167432,9.6252004 23.7641846,11.3332644 23.847207,12.0180288 C23.9144157,12.6027714 24.0765071,12.8912957 24.4046434,13.0259403 C24.51534,13.0721043 25.2111471,13.164432 25.4364936,13.164432 C25.4523075,13.164432 25.4641679,13.2990767 25.456261,13.4644973 L25.4444006,13.7645626 L22.5188481,13.7722566 C20.9097941,13.7684096 19.5695747,13.7568686 19.5419006,13.7414807 Z" id="path-1"/>
                </g>
                <g id="path-1-link" fill="#758693" fill-opacity="0.7">
                    <path d="M13.6631213,13.9607737 C12.7063865,13.8261289 11.8643018,13.4298889 11.2238429,12.8143704 C10.6901274,12.2988737 10.3422237,11.733366 10.0892029,10.9562738 C9.68990462,9.74447165 9.68990462,8.18644039 10.0892029,7.00156725 C10.476641,5.85131699 11.3424464,4.85109932 12.4098778,4.33175559 C13.8845144,3.61236832 15.9561219,3.65853219 17.320062,4.43947132 C18.5495848,5.14347065 19.2928333,6.39374265 19.4984126,8.09795965 C19.5616678,8.62115039 19.5221333,9.72138979 19.4193437,10.1753347 C19.0121384,12.0372783 17.8261035,13.3337141 16.0865858,13.8261289 C15.9007736,13.8799869 15.6082184,13.9415387 15.4421735,13.9646206 C15.0903165,14.0107845 14.0070714,14.0107845 13.6631213,13.9607737 Z M15.0982234,13.2144575 C15.3789183,13.1336707 15.7228684,12.8182174 15.9086805,12.4758352 C16.2882117,11.7679889 16.45821,10.7216074 16.4622318,9.05970732 C16.4661169,6.97848525 16.1300737,5.65127345 15.4224063,4.95881512 C15.1258976,4.66644379 14.9124113,4.57796299 14.5328801,4.57796299 C13.6907954,4.57796299 13.1531263,5.43584192 12.9435935,7.12467092 C12.8447572,7.90176312 12.8447572,9.74831865 12.9435935,10.4253891 C13.2440556,12.5258461 14.0149783,13.5260637 15.0982234,13.2144575 Z M30.6431866,13.9607737 C30.2517951,13.9223038 29.0539,13.7261072 28.6348343,13.6337795 L28.3462325,13.5683806 L28.3699531,12.0642071 C28.4253015,8.44034185 28.4292549,6.46298852 28.3976273,4.53949305 C28.3620463,2.65446759 28.3541394,2.45442405 28.2790238,2.17744072 C28.1841411,1.82351752 28.0497238,1.57731012 27.8836788,1.46574739 C27.8204238,1.42343052 27.6464719,1.35803165 27.5001943,1.32725572 C27.0060132,1.21953999 27.0336873,1.23877492 27.0218269,1.01949645 C27.01392,0.892545787 27.0297338,0.811758987 27.0613614,0.784830054 C27.0969425,0.74636012 31.1334144,-0.00380309313 31.2638781,1.45211003e-05 C31.2994592,1.45211003e-05 31.3073661,0.5039997 31.2875989,2.23129859 C31.2757386,3.45848865 31.271785,4.46255325 31.2836454,4.46255325 C31.2955058,4.46255325 31.4417834,4.40100145 31.6117817,4.32406159 C32.1217767,4.09324212 32.5922372,3.99706739 33.2722305,3.97398545 C33.7268772,3.95859745 33.93641,3.97013845 34.1696635,4.01630232 C35.6917416,4.32406159 36.8184747,5.53586372 37.2138196,7.29393852 C37.3166093,7.75173045 37.3561438,8.89043972 37.2849818,9.45979439 C37.2256799,9.94451519 37.0596351,10.6023507 36.8896367,11.0255196 C36.2373176,12.6297148 34.8417499,13.6760963 32.9875822,13.9492327 C32.5606097,14.0107845 31.2164368,14.0184785 30.6431866,13.9607737 Z M32.2285199,13.1952225 C32.5171217,13.1413647 32.7385148,13.0298019 32.9796753,12.8220644 C33.5805996,12.2950267 34.0312928,11.2140222 34.209198,9.86757539 C34.2803601,9.32130272 34.2724532,8.07487765 34.1933842,7.61708579 C33.9759446,6.38220172 33.5094374,5.57048665 32.8294441,5.24349239 C32.5487492,5.10884772 32.5052613,5.09730679 32.1692181,5.09730679 C31.9320112,5.09730679 31.7224783,5.12038872 31.5485266,5.17424659 L31.2875989,5.25118639 L31.2678316,6.65533805 C31.2441109,8.45572979 31.3034127,12.964403 31.3548075,13.0952007 C31.3864351,13.1759875 31.4220162,13.1952225 31.5841076,13.2067635 C31.9557318,13.2336924 32.0189871,13.2336924 32.2285199,13.1952225 Z M42.0093538,13.9415387 C40.0484429,13.5991565 38.6449683,12.2450157 38.1863681,10.2522745 C38.1270665,9.99452612 38.0993923,9.70984879 38.0875319,9.15588212 C38.0638113,8.27876819 38.1389268,7.73634245 38.3682269,7.05927212 C38.8149667,5.75898919 39.6135635,4.83955839 40.7758776,4.28943865 C42.0014469,3.70854305 43.6816629,3.67007319 44.764908,4.19711092 C45.986524,4.79339445 46.7060517,5.98211465 46.8879104,7.71326052 C46.9116311,7.94792699 46.9274449,8.22106332 46.919538,8.32877905 L46.9076777,8.52112865 L43.9821251,8.53266959 L41.0565724,8.54421052 L41.0684328,8.87889879 C41.0961069,9.65983792 41.2661053,10.3484493 41.5863346,10.9447328 C41.7326122,11.2178692 41.8472624,11.3640548 42.1279572,11.6410382 C42.7605092,12.2604037 43.3891076,12.5027642 44.3814234,12.5027642 C45.1009512,12.5027642 45.6188531,12.3642725 46.1604757,12.0218903 C46.3107068,11.9257155 46.4648913,11.8487757 46.5004724,11.8487757 C46.5834948,11.8487757 46.7732604,12.0872891 46.7732604,12.1911579 C46.7732604,12.3604255 46.2079171,12.9066981 45.6544342,13.2721623 C45.1997875,13.5683806 44.4842131,13.841517 43.8595682,13.9453857 C43.4207352,14.0184785 42.4402798,14.0184785 42.0093538,13.9415387 Z M43.2507369,7.67094365 L43.9386371,7.64786165 L43.9149164,7.17083479 C43.8279405,5.49354679 43.4049215,4.57796299 42.7209747,4.57796299 C41.9777263,4.57796299 41.3847088,5.50893479 41.1356414,7.05927212 C41.1040138,7.24777465 41.0802932,7.47474712 41.0802932,7.55938092 L41.0802932,7.71326052 L41.8235416,7.70171959 C42.2267935,7.69787259 42.8712057,7.68248465 43.2507369,7.67094365 Z M49.9162526,13.9800087 C49.2125387,13.9069158 48.0897591,13.6684023 47.7181348,13.5106757 L47.5362761,13.4337359 L47.5125554,12.556622 C47.5006951,12.0719011 47.4848813,11.4256067 47.4769743,11.1216945 L47.465114,10.5638807 L47.5758106,10.5138699 C47.6351124,10.4869409 47.7576693,10.460012 47.8446452,10.456165 L48.0067366,10.448471 L48.1451073,10.7754653 C48.678823,12.0526662 49.303468,12.7374306 50.1178786,12.9490151 C50.4302011,13.0298019 51.0113582,13.0298019 51.2446117,12.9490151 C51.8890239,12.7258896 52.2448343,12.2527097 52.2487878,11.6025683 C52.2527412,10.8331701 51.8178618,10.4638589 50.1771803,9.84064652 C49.1611438,9.45210039 48.8053334,9.25590385 48.3823143,8.83273485 C47.9276676,8.37878999 47.7062745,7.86329312 47.6667399,7.14390585 C47.6153451,6.27448599 47.89604,5.53971072 48.5167316,4.91649819 C49.1413766,4.28943865 49.9518337,3.94705652 51.0548461,3.85088172 C52.0273946,3.76624792 53.5178451,3.96629145 54.2966747,4.28559172 L54.4389988,4.34329652 L54.4627195,5.12808265 C54.4785333,5.55894565 54.4903936,6.13599425 54.4943472,6.41297765 L54.502254,6.91308645 L54.3124885,6.98233225 C54.0080728,7.09004799 53.9883056,7.07850705 53.8222606,6.64379705 C53.3518003,5.42814799 52.8022708,4.85109932 51.9483257,4.67413779 C51.4264704,4.56642205 50.9915909,4.68183172 50.6753149,5.01267299 C50.4302011,5.27042132 50.3313648,5.49739379 50.3076442,5.87824592 C50.2839235,6.29372092 50.359039,6.51684639 50.6199667,6.79382972 C50.940196,7.13621192 51.4660048,7.42858319 52.5136689,7.85559919 C53.7945866,8.37878999 54.4073712,8.82119392 54.739461,9.46748832 C54.9569008,9.88681032 55.0162024,10.2214986 54.9964352,10.867793 C54.9806214,11.3525139 54.9648075,11.4525357 54.8501576,11.7756829 C54.4824868,12.8374523 53.6483089,13.5337577 52.3594844,13.8645989 C51.924605,13.9761617 51.8613498,13.9800087 50.9915909,13.9915496 C50.4815959,13.9915496 50.0032285,13.9877026 49.9162526,13.9800087 Z M0.0513948428,13.7491891 C0.0197672472,13.7376482 0.00395344944,13.6414735 0.00395344944,13.4645118 C0.00395344944,13.1452116 -0.0158137978,13.1605996 0.616738114,13.0451898 C1.10301239,12.9567091 1.27696417,12.8682283 1.49045043,12.5950919 C1.90556264,12.0642071 1.99649197,11.0409077 1.99649197,6.83229965 C1.99649197,2.88144005 1.91742298,2.04664305 1.49045043,1.43881845 C1.30068487,1.16952912 0.976502009,1.01949645 0.438832888,0.957944587 L0.0237206967,0.90408672 L0.0118603483,0.588633494 L7.10542736e-15,0.273180247 L0.130463832,0.2500983 C0.201625922,0.238557327 2.71601977,0.230863347 5.71668789,0.238557327 L11.1724481,0.2500983 L11.1961688,0.403977934 C11.2119826,0.488611734 11.2317498,1.35803165 11.2475637,2.33132032 L11.2752379,4.10478312 L10.9905894,4.19326392 C10.5675704,4.32021459 10.5715238,4.32021459 10.3778048,3.82779979 C9.91129781,2.62369165 9.37362861,1.93123332 8.63828703,1.57731012 C8.13224548,1.33494972 7.89899204,1.30802079 6.46784329,1.30802079 L5.22250671,1.30802079 L5.20273946,1.50806432 C5.16320497,1.88506939 5.09994978,4.32406159 5.09994978,5.47046485 L5.09994978,6.61686812 L5.46366713,6.61302119 C5.66529305,6.61302119 6.060638,6.59763319 6.34528635,6.58224525 C6.77225889,6.55916325 6.8987693,6.53608132 7.07667448,6.45529452 C7.51550739,6.25909799 7.81201606,5.82438805 7.99387478,5.11654172 L8.08875765,4.75107759 L8.41294042,4.73953659 L8.73712332,4.72799565 L8.73712332,7.04003719 L8.73712332,9.35207865 L8.41294042,9.34053765 L8.08875765,9.32899665 L7.99782819,8.96353252 C7.82387643,8.27876819 7.49574012,7.78635332 7.08458137,7.60939179 C6.89481582,7.52860499 6.4283088,7.48244112 5.52296888,7.45551212 L5.09599633,7.44397112 L5.09599633,8.30954412 C5.09599633,9.25590385 5.15134462,10.5369518 5.21855327,11.2294101 C5.31343604,12.1988519 5.56645682,12.7335836 6.02505696,12.9259331 C6.11203284,12.964403 6.3887743,13.0221079 6.63784162,13.0605779 C6.88690893,13.0952007 7.12411591,13.1413647 7.15969698,13.1605996 C7.25457972,13.2106105 7.26248661,13.7107193 7.16760387,13.7453421 C7.10039523,13.7761181 0.122556933,13.7761181 0.0513948428,13.7491891 Z M19.5419006,13.7414952 C19.5063195,13.7184133 19.4944592,13.6299325 19.5023661,13.4452769 L19.5142265,13.1798345 L19.6525971,13.1529056 C19.7277128,13.1375177 19.8937576,13.1067417 20.0163146,13.0836597 C20.3997992,13.0144139 20.6172388,12.8105234 20.7437493,12.4142833 C20.8465389,12.0911361 20.8900269,11.0601426 20.8900269,8.98661445 C20.8939803,6.45144752 20.838632,5.85516392 20.5737509,5.51278179 C20.4314268,5.32812619 20.328637,5.27811532 19.9807335,5.21271652 C19.8107351,5.18194059 19.6288765,5.14731765 19.5814352,5.13577665 C19.5023661,5.12038872 19.4944592,5.09345979 19.4944592,4.90495725 C19.4944592,4.72030165 19.5063195,4.68952572 19.5814352,4.65874979 C19.7000386,4.61258592 23.617907,3.85088172 23.7404639,3.85088172 L23.8393002,3.85088172 L23.8195329,4.42023639 C23.8076725,4.73184265 23.7918588,5.18578752 23.7839518,5.42814799 L23.7641846,5.87055192 L23.9065088,5.62049752 C24.3611554,4.82417039 24.8711505,4.32790859 25.5471903,4.02784332 C25.9188146,3.86242272 26.1678819,3.81241185 26.626482,3.81241185 C27.172058,3.81241185 27.717634,3.98552639 27.717634,4.15864099 C27.717634,4.27405072 26.7569458,6.74381885 26.705551,6.76305379 C26.6778768,6.77459479 26.4920647,6.70150192 26.2904388,6.60917419 C25.8674197,6.41297765 25.4681214,6.31295585 25.0846368,6.31680285 C24.6023158,6.31680285 24.0686002,6.48991745 23.8551139,6.71304292 C23.7641846,6.80921765 23.7641846,6.81306465 23.7404639,8.22491025 C23.7167432,9.62521492 23.7641846,11.3332789 23.847207,12.0180433 C23.9144157,12.6027859 24.0765071,12.8913102 24.4046434,13.0259549 C24.51534,13.0721188 25.2111471,13.1644465 25.4364936,13.1644465 C25.4523075,13.1644465 25.4641679,13.2990913 25.456261,13.4645118 L25.4444006,13.7645771 L22.5188481,13.7722711 C20.9097941,13.7684241 19.5695747,13.7568831 19.5419006,13.7414952 Z" id="path-1"/>
                </g>
            </g>
        </g>
    </g>
</svg>