<svg height="25" viewBox="0 0 24 25" width="24" xmlns="http://www.w3.org/2000/svg"><g fill="none" fill-rule="evenodd"><path d="m0 0h23.125v25h-23.125z"/><g fill-rule="nonzero" transform="translate(0 1.875)"><path d="m22.6895964 17.9226389v-17.9226389h-22.6895964v17.9226389z" fill="#fff"/><path d="m22.6895964 17.9226389v-17.9226389h-22.6895964v17.9226389z" fill="#758693" fill-opacity=".7"/><path d="m16.2476677 3.27216667c.0156709 0 .0295335.00358333.0446017.00477777-3.2938384-2.27582915-7.24981228-3.41895387-11.26192349-3.25426388-1.71234277.10630555-3.42468554.424625-5.03034591.95495833v.21141667c1.60566037-.52973612 3.31800314-.84805556 5.03034591-.95436112 4.07201259-.21798611 7.87822329.95197223 11.00455979 3.06434723.069538-.01758023.1409967-.02660652.212762-.026875zm6.4419287 16.68758333v-2.8624861h-22.6895964v2.8624861z" fill="#fff" transform="translate(0 1.25)"/><path d="m16.2476677 3.27216667c.0156709 0 .0295335.00358333.0446017.00477777-3.2938384-2.27582915-7.24981228-3.41895387-11.26192349-3.25426388-1.71234277.10630555-3.42468554.424625-5.03034591.95495833v.21141667c1.60566037-.52973612 3.31800314-.84805556 5.03034591-.95436112 4.07201259-.21798611 7.87822329.95197223 11.00455979 3.06434723.069538-.01758023.1409967-.02660652.212762-.026875zm6.4419287 16.68758333v-2.8624861h-22.6895964v2.8624861z" fill="#758693" fill-opacity=".7" transform="translate(0 1.25)"/><g fill="#fff"><path d="m1.60566038 20.7863194c-.53522013 0-.96315514-.2120138-.96315514-.7429444 0-.4234306.42793501-.74175 1.06983753-.74175.53522012 0 .85587002.2120139.96315514.5297361h-.74858491c0-.1051111-.10728512-.1051111-.21396751-.1051111-.32125261 0-.42853773.1051111-.42853773.317125 0 .3183194.10728512.424625.42853773.424625.10728512 0 .21396751-.1063056.3206499-.2120139h.64190252c-.1066824.3177222-.42793502.5303333-1.06983753.5303333zm7.27730606 0v-.2120138c-.2139675.2120138-.427935.2120138-.74858488.2120138-.32125262 0-.64250525-.1063055-.64250525-.424625 0-.2120138.2139675-.3183194.64250525-.424625.427935 0 .64129975 0 .64129975-.1063055 0-.1051111 0-.2114166-.21336475-.2114166-.2139675 0-.32125262.1063055-.32125262.2114166h-.6419025c.10728512-.317125.42853775-.4234306.96375787-.4234306.32064988 0 .64250519 0 .74858488.1063056.10728512.1063055.10728512.317125.10728512.4234305v.5309306c0 .1063056.10788782.2120139.10788782.2120139v.1063055zm-.427935-.6372361c-.2139675.1063056-.32064988.1063056-.32064988.212014 0 .1063055.10668238.1063055.32064988.1063055s.32064987 0 .32064987-.2120139v-.1063056zm2.67610066-.74175h.6425052v.212014c.1072851-.212014.3206499-.212014.6419025-.212014.427935 0 .6419026.1063056.6419026.4234306v.9555555h-.6419026v-.7429444c0-.2120139 0-.317125-.3212526-.317125-.2133648 0-.3206499.1051111-.3206499.317125v.7429444h-.6425052zm-6.95665621-.5309305h.64250524v.7429445c.10728512-.212014.3206499-.212014.64190252-.212014.42793501 0 .64190251.1063056.64190251.4234306v.9555555h-.64190251v-.7429444c0-.2120139 0-.317125-.32125262-.317125-.21336478 0-.3206499.1051111-.3206499.317125v.7429444h-.64250524zm10.38134171.5309305h.6412998v.212014c.2139675-.212014.4285377-.212014.6419025-.212014.5352202 0 .7491877.1063056.7491877.4234306v.9555555h-.748585v-.7429444c0-.2120139 0-.317125-.2139675-.317125s-.3212526.1051111-.3212526.317125v.7429444h-.7485849zm5.5649633.9543611c-.1066823.3183195-.5346174.424625-1.0698375.424625-.6419025 0-1.0698375-.2120138-1.0698375-.7429444 0-.4234306.427935-.74175 1.0698375-.74175s1.0698375.3183194 1.0698375.8480556h-1.3910901c0 .2120138.1066824.3183194.3206499.3183194s.3212526 0 .4285377-.1063056zm-.6419025-.424625c0-.2114166-.1072851-.317125-.4285377-.317125-.2139675 0-.3206499.1063056-.3206499.317125zm1.9263103-1.0606666h.7497904v1.9099166h-.7497904zm-21.4051887-.9537639 6.31415094-17.9226389h-2.56821278l-3.74593816 17.6043194zm7.70584381-7.1051528v-5.83306943h3.63865309l.1072851 1.59100002h-2.03359544v.74175h1.71294554v1.591h-1.71294554v1.90931941zm14.23456499 0-1.8196279-3.07569441 1.7129455-2.75737502h-1.926913l-.6419025 1.27268058-.7491876-1.27268058h-1.926913l1.7123428 2.86368058-1.7123428 2.96938885h1.8196278l.8564728-1.48469441.85587 1.48469441z"/><path d="m14.8770702 9.12018056.1072852-2.43905556c0-.31831944-.3212527-.53093056-.5352202-.53093056-.3212526 0-.5358228.21201387-.5358228.53093056v2.43905556c0 .31831944.2139675.53093057.5358228.53093057.2133648 0 .427935-.21201388.427935-.53093057zm-3.4252882-1.166375c0-1.591 1.2844077-2.96998612 2.9973532-2.96998612 1.6050577 0 2.9967505 1.37898612 2.9967505 2.96998612s-1.3916928 2.86368054-2.9967505 2.86368054c-1.7129455 0-2.9973532-1.27268054-2.9973532-2.86368054zm-3.10343294 3.81804174h3.42468554v1.2726805h-2.14088054v.74175h1.81962794v1.166375h-1.81962794v.84925h2.14088054v1.2726805h-3.42468554zm3.74533544 0h1.2844077l.6425053 3.0745.6419025-3.0745h1.1771226l.6425053 3.0745.6419025-3.0745h1.1771227l-1.2844078 5.302736h-1.1771227l-.6419025-3.0756944-.6419025 3.0756944h-1.2844077zm7.1712264 3.3934166c.1072851.5309305.427935.7429444.9631552.7429444.3212526 0 .4285377-.2120139.4285377-.424625 0-.424625-.3212527-.3183194-.8564728-.5309305-1.0698375-.3183195-1.6050576-.74175-1.6050576-1.5898055 0-1.061264.7485848-1.8036112 2.0329927-1.8036112.8564727 0 1.4983752.5297362 1.8202305 1.3789862l-1.1771226.3183194c-.2139675-.3183194-.4285378-.5309306-.7497904-.5309306-.3206499 0-.5346173.2126112-.5346173.424625 0 .3183195.3206498.3183195.8558699.5297362.4285378.1063055.8564728.2120138 1.2844078.5309305.2139675.2120139.4285377.6354445.4285377 1.0600695s-.2139675.8480555-.4285377 1.166375c-.427935.424625-.9637578.6366388-1.6056604.6366388-1.1771226 0-1.9257075-.5309305-2.1402777-1.591zm-12.62890459-3.3934166v2.6510694l-1.6056604-2.6510694h-1.49837526v5.302736h1.28440776v-3.0756944l1.92691297 3.0756944h1.28380506v-5.302736zm0-7.34762507-3.09258388 6.39326387h1.1451782l1.94740568-3.0183611zm2.42416138-.38461112 2.60558181-4.03961111h-2.89006819l-1.95403562 4.03961111z"/></g></g></g></svg>