<?xml version="1.0" encoding="UTF-8"?>
<svg width="126px" height="25px" viewBox="0 0 126 25" version="1.1" xmlns="http://www.w3.org/2000/svg" xmlns:xlink="http://www.w3.org/1999/xlink">
    <!-- Generator: Sketch 55.2 (78181) - https://sketchapp.com -->
    <title>huffpost-25px</title>
    <desc>Created with Sketch.</desc>
    <g id="huffpost-25px" stroke="none" stroke-width="1" fill="none" fill-rule="evenodd">
        <g id="huffpost">
            <polygon id="container" points="0 0 126 0 126 25 0 25"/>
            <g id="HuffPost" transform="translate(1.000000, 6.000000)" fill-rule="nonzero">
                <g id="path3348" transform="translate(6.888889, 0.000000)">
                    <g id="path-1-link" fill="#FFFFFF">
                        <polygon id="path-1" points="9.26059444 14.4411231 13.7742121 14.4411231 16.1940603 0.48425323 11.6804426 0.48425323 10.7880164 5.48243835 6.87507029 5.48243835 7.76749657 0.48425323 3.25387918 0.48425323 0.834030966 14.4411231 5.34764837 14.4411231 6.25723668 9.21810618 10.1701827 9.21810618"/>
                    </g>
                    <g id="path-1-link" fill="#758693" fill-opacity="0.7">
                        <polygon id="path-1" points="9.26059444 14.4411231 13.7742121 14.4411231 16.1940603 0.48425323 11.6804426 0.48425323 10.7880164 5.48243835 6.87507029 5.48243835 7.76749657 0.48425323 3.25387918 0.48425323 0.834030966 14.4411231 5.34764837 14.4411231 6.25723668 9.21810618 10.1701827 9.21810618"/>
                    </g>
                </g>
                <g id="path3352" transform="translate(23.250000, 0.000000)">
                    <g id="path-2-link" fill="#FFFFFF">
                        <path d="M2.3900938,0.466958471 L1.01713024,8.23230487 C0.89699585,8.83762138 0.845509758,9.42564318 0.845509758,9.9790755 C0.845509758,14.095228 4.41521496,14.7178392 6.5604705,14.7178392 C11.056926,14.7178392 12.996237,13.2131952 13.6998808,9.14892706 L15.2101407,0.449663712 L10.6965231,0.449663712 L9.40936981,7.74805169 C8.99748073,10.0309597 8.70572595,11.224298 7.02384567,11.224298 C5.92547485,11.224298 5.39345147,10.6362762 5.39345147,9.42564318 C5.39345147,8.95868479 5.46209968,8.38795774 5.59939601,7.67887267 L6.90371137,0.449663712 L2.3900938,0.449663712 L2.3900938,0.466958471 Z" id="path-2"/>
                    </g>
                    <g id="path-2-link" fill="#758693" fill-opacity="0.7">
                        <path d="M2.3900938,0.466958471 L1.01713024,8.23230487 C0.89699585,8.83762138 0.845509758,9.42564318 0.845509758,9.9790755 C0.845509758,14.095228 4.41521496,14.7178392 6.5604705,14.7178392 C11.056926,14.7178392 12.996237,13.2131952 13.6998808,9.14892706 L15.2101407,0.449663712 L10.6965231,0.449663712 L9.40936981,7.74805169 C8.99748073,10.0309597 8.70572595,11.224298 7.02384567,11.224298 C5.92547485,11.224298 5.39345147,10.6362762 5.39345147,9.42564318 C5.39345147,8.95868479 5.46209968,8.38795774 5.59939601,7.67887267 L6.90371137,0.449663712 L2.3900938,0.449663712 L2.3900938,0.466958471 Z" id="path-2"/>
                    </g>
                </g>
                <g id="path3356" transform="translate(62.000000, 0.000000)">
                    <g id="path-3-link" fill="#FFFFFF">
                        <path d="M0.315382031,14.4411231 L4.8289996,14.4411231 L5.46399524,10.8438134 L7.59208876,10.8438134 C11.5221968,10.8438134 13.7017763,8.69926338 13.7017763,4.79064802 C13.7017763,2.04078146 11.8139515,0.466958471 8.50167706,0.466958471 L2.73523023,0.466958471 L0.315382031,14.4411231 Z M7.35182007,7.40215651 L6.04750471,7.40215651 L6.6481763,4.11615245 L7.86668142,4.11615245 C8.86207996,4.11615245 9.39410343,4.61770044 9.39410343,5.53432263 C9.39410343,6.69307142 8.62181136,7.40215651 7.35182007,7.40215651 Z" id="path-3"/>
                    </g>
                    <g id="path-3-link" fill="#758693" fill-opacity="0.7">
                        <path d="M0.315382031,14.4411231 L4.8289996,14.4411231 L5.46399524,10.8438134 L7.59208876,10.8438134 C11.5221968,10.8438134 13.7017763,8.69926338 13.7017763,4.79064802 C13.7017763,2.04078146 11.8139515,0.466958471 8.50167706,0.466958471 L2.73523023,0.466958471 L0.315382031,14.4411231 Z M7.35182007,7.40215651 L6.04750471,7.40215651 L6.6481763,4.11615245 L7.86668142,4.11615245 C8.86207996,4.11615245 9.39410343,4.61770044 9.39410343,5.53432263 C9.39410343,6.69307142 8.62181136,7.40215651 7.35182007,7.40215651 Z" id="path-3"/>
                    </g>
                </g>
                <g id="path3360" transform="translate(75.777778, 0.000000)">
                    <g id="path-4-link" fill="#FFFFFF">
                        <path d="M8.69380335,0.172947581 C3.78545839,0.172947581 0.850749189,3.37247785 0.850749189,8.75114764 C0.850749189,12.4868154 3.1847875,14.735134 7.09773244,14.735134 C12.0060778,14.735134 14.9409744,11.5356037 14.9409744,6.15693392 C14.9579495,2.40397139 12.6239113,0.172947581 8.69380335,0.172947581 Z M7.37232571,11.1205295 C6.20530686,11.1205295 5.5188252,10.2730864 5.5188252,8.85491621 C5.5188252,8.31877871 5.57031095,7.85182021 5.67328399,7.31568272 C6.01652374,5.48243835 6.6000339,3.8048468 8.43637298,3.8048468 C9.60339106,3.8048468 10.2898735,4.65228995 10.2898735,6.07046013 C10.2898735,6.60659764 10.238387,7.0735561 10.1354147,7.60969358 C9.79217417,9.42564318 9.20866479,11.1205295 7.37232571,11.1205295 Z" id="path-4"/>
                    </g>
                    <g id="path-4-link" fill="#758693" fill-opacity="0.7">
                        <path d="M8.69380335,0.172947581 C3.78545839,0.172947581 0.850749189,3.37247785 0.850749189,8.75114764 C0.850749189,12.4868154 3.1847875,14.735134 7.09773244,14.735134 C12.0060778,14.735134 14.9409744,11.5356037 14.9409744,6.15693392 C14.9579495,2.40397139 12.6239113,0.172947581 8.69380335,0.172947581 Z M7.37232571,11.1205295 C6.20530686,11.1205295 5.5188252,10.2730864 5.5188252,8.85491621 C5.5188252,8.31877871 5.57031095,7.85182021 5.67328399,7.31568272 C6.01652374,5.48243835 6.6000339,3.8048468 8.43637298,3.8048468 C9.60339106,3.8048468 10.2898735,4.65228995 10.2898735,6.07046013 C10.2898735,6.60659764 10.238387,7.0735561 10.1354147,7.60969358 C9.79217417,9.42564318 9.20866479,11.1205295 7.37232571,11.1205295 Z" id="path-4"/>
                    </g>
                </g>
                <g id="path3364" transform="translate(104.194444, 0.000000)">
                    <g id="path-5-link" fill="#FFFFFF">
                        <polygon id="path-5" points="2.22739133 14.4411231 6.74100942 14.4411231 8.52586111 4.219921 11.9239459 4.219921 12.5761041 0.48425323 1.02604747 0.48425323 0.373891 4.219921 3.97791914 4.219921"/>
                    </g>
                    <g id="path-5-link" fill="#758693" fill-opacity="0.7">
                        <polygon id="path-5" points="2.22739133 14.4411231 6.74100942 14.4411231 8.52586111 4.219921 11.9239459 4.219921 12.5761041 0.48425323 1.02604747 0.48425323 0.373891 4.219921 3.97791914 4.219921"/>
                    </g>
                </g>
                <g id="path3366" transform="translate(90.416667, 0.000000)">
                    <g id="path-6-link" fill="#FFFFFF">
                        <path d="M8.52251742,5.63809117 C7.09806742,5.18842745 6.51455786,4.99818512 6.51455786,4.32368955 C6.51455786,3.87402584 6.80631264,3.33788833 7.66441503,3.33788833 C8.29941042,3.33788833 8.83143414,3.70107825 9.03737919,4.23721576 L13.0189736,3.147646 C12.5555985,1.17604355 10.8737176,0.172947581 7.97333175,0.172947581 C2.51580242,0.172947581 2.08675122,3.85673108 2.08675122,4.98089036 C2.08675122,7.26379844 3.28809422,8.66467387 5.89672528,9.39105371 C6.58320564,9.58129606 7.37266025,9.78883315 7.37266025,10.5498025 C7.37266025,11.155119 6.92644711,11.5356037 6.15415531,11.5356037 C5.45051128,11.5356037 4.69538228,11.1205295 4.43795053,10.3941497 L0.507842861,11.4664247 C0.936894056,13.5417956 2.87620497,14.7178392 5.91388722,14.7178392 C8.23076264,14.7178392 12.1093845,14.095228 12.1093845,9.87530691 C12.1265473,7.76534644 10.9423654,6.38176578 8.52251742,5.63809117 Z" id="path-6"/>
                    </g>
                    <g id="path-6-link" fill="#758693" fill-opacity="0.7">
                        <path d="M8.52251742,5.63809117 C7.09806742,5.18842745 6.51455786,4.99818512 6.51455786,4.32368955 C6.51455786,3.87402584 6.80631264,3.33788833 7.66441503,3.33788833 C8.29941042,3.33788833 8.83143414,3.70107825 9.03737919,4.23721576 L13.0189736,3.147646 C12.5555985,1.17604355 10.8737176,0.172947581 7.97333175,0.172947581 C2.51580242,0.172947581 2.08675122,3.85673108 2.08675122,4.98089036 C2.08675122,7.26379844 3.28809422,8.66467387 5.89672528,9.39105371 C6.58320564,9.58129606 7.37266025,9.78883315 7.37266025,10.5498025 C7.37266025,11.155119 6.92644711,11.5356037 6.15415531,11.5356037 C5.45051128,11.5356037 4.69538228,11.1205295 4.43795053,10.3941497 L0.507842861,11.4664247 C0.936894056,13.5417956 2.87620497,14.7178392 5.91388722,14.7178392 C8.23076264,14.7178392 12.1093845,14.095228 12.1093845,9.87530691 C12.1265473,7.76534644 10.9423654,6.38176578 8.52251742,5.63809117 Z" id="path-6"/>
                    </g>
                </g>
                <g id="path3370">
                    <g id="path-7-link" fill="#FFFFFF">
                        <polygon id="path-7" points="5.20009937 14.4411231 7.63710966 0.48425323 0.171620441 0.48425323 0.171620441 14.4411231"/>
                    </g>
                    <g id="path-7-link" fill="#758693" fill-opacity="0.7">
                        <polygon id="path-7" points="5.20009937 14.4411231 7.63710966 0.48425323 0.171620441 0.48425323 0.171620441 14.4411231"/>
                    </g>
                </g>
                <g id="path3374" transform="translate(116.250000, 0.000000)">
                    <g id="path-8-link" fill="#FFFFFF">
                        <polygon id="path-8" points="2.45985861 0.48425323 0.0400106667 14.4411231 7.50549956 14.4411231 7.50549956 0.48425323"/>
                    </g>
                    <g id="path-8-link" fill="#758693" fill-opacity="0.7">
                        <polygon id="path-8" points="2.45985861 0.48425323 0.0400106667 14.4411231 7.50549956 14.4411231 7.50549956 0.48425323"/>
                    </g>
                </g>
                <g id="polygon3376" transform="translate(37.888889, 0.000000)">
                    <g id="path-9-link" fill="#FFFFFF">
                        <polygon id="path-9" points="5.96013388 10.3249706 9.75294556 10.3249706 10.3707792 6.81413472 6.57796741 6.81413472 7.00701852 4.219921 12.3100901 4.219921 12.9622478 0.466958471 3.14555855 0.466958471 0.725710344 14.4411231 5.23932791 14.4411231"/>
                    </g>
                    <g id="path-9-link" fill="#758693" fill-opacity="0.7">
                        <polygon id="path-9" points="5.96013388 10.3249706 9.75294556 10.3249706 10.3707792 6.81413472 6.57796741 6.81413472 7.00701852 4.219921 12.3100901 4.219921 12.9622478 0.466958471 3.14555855 0.466958471 0.725710344 14.4411231 5.23932791 14.4411231"/>
                    </g>
                </g>
                <g id="polygon3378" transform="translate(49.944444, 0.000000)">
                    <g id="path-10-link" fill="#FFFFFF">
                        <polygon id="path-10" points="5.72922668 10.3249706 9.53920048 10.3249706 10.157034 6.81413472 6.36422233 6.81413472 6.79327335 4.219921 12.096345 4.219921 12.7485027 0.466958471 2.93181346 0.466958471 0.511965258 14.4411231 5.02558283 14.4411231"/>
                    </g>
                    <g id="path-10-link" fill="#758693" fill-opacity="0.7">
                        <polygon id="path-10" points="5.72922668 10.3249706 9.53920048 10.3249706 10.157034 6.81413472 6.36422233 6.81413472 6.79327335 4.219921 12.096345 4.219921 12.7485027 0.466958471 2.93181346 0.466958471 0.511965258 14.4411231 5.02558283 14.4411231"/>
                    </g>
                </g>
            </g>
        </g>
    </g>
</svg>