<svg height="25" viewBox="0 0 112 25" width="112" xmlns="http://www.w3.org/2000/svg"><g fill="none" fill-rule="evenodd"><path d="M29.839 17.543l1.885-1.587c.706.965 1.885 1.823 3.213 1.823 1.477 0 2.334-.665 2.334-1.76 0-1.136-.707-1.801-2.206-2.466l-1.2-.515c-2.291-1.008-3.426-2.467-3.426-4.44 0-2.446 2.206-4.033 4.519-4.033 1.756 0 3.149.6 4.262 1.93l-1.713 1.78c-.793-.943-1.478-1.35-2.57-1.35-1.029 0-2.014.6-2.014 1.651 0 .987.686 1.695 2.206 2.338l1.178.537c2.078.9 3.492 2.23 3.492 4.354 0 2.575-1.907 4.334-4.841 4.334-2.292 0-4.155-1.03-5.12-2.596m16.793-5.427c1.82 0 2.892-1.009 2.892-2.532s-1.071-2.53-2.892-2.53h-1.949v5.062h1.95zm-4.433-7.38h4.54c3.149 0 5.312 1.974 5.312 4.848 0 2.832-2.163 4.848-5.312 4.848h-2.056v5.535h-2.484V4.737zm24.117 7.616c0-3.046-2.249-5.428-5.247-5.428-3 0-5.248 2.382-5.248 5.428s2.249 5.427 5.248 5.427c2.998 0 5.247-2.381 5.247-5.427m-13.022 0c0-4.398 3.47-7.787 7.775-7.787 4.326 0 7.775 3.39 7.775 7.787s-3.449 7.787-7.775 7.787c-4.306 0-7.775-3.39-7.775-7.787m18.056-7.616h2.484v7.659l6.405-7.659h2.955l-6.447 7.701 7.09 7.53h-3.213l-6.79-7.186v7.186H71.35zm14.18 0h9.017v2.446h-6.533v3.861h5.247v2.403h-5.247v4.076h6.533v2.445h-9.018zm23.796 7.616c0-3.046-2.25-5.428-5.248-5.428-2.999 0-5.248 2.382-5.248 5.428s2.25 5.427 5.248 5.427c2.999 0 5.248-2.381 5.248-5.427m-13.023 0c0-4.398 3.47-7.787 7.775-7.787 4.327 0 7.775 3.39 7.775 7.787s-3.448 7.787-7.775 7.787c-4.305 0-7.775-3.39-7.775-7.787" fill="#758693"/><path d="M10.784 19.834L12.514 25h-.033C5.588 25 0 19.404 0 12.5S5.588 0 12.48 0h.023l-1.73 5.169A7.527 7.527 0 0 0 4.965 12.5a7.527 7.527 0 0 0 5.818 7.334zM12.525 0c6.873.024 12.437 5.611 12.437 12.5 0 6.893-5.57 12.482-12.448 12.5l1.736-5.184a7.527 7.527 0 0 0 5.746-7.316 7.527 7.527 0 0 0-5.734-7.313z" fill="#05a6f0"/></g></svg>