<?xml version="1.0" encoding="UTF-8"?>
<svg width="140px" height="25px" viewBox="0 0 140 25" version="1.1" xmlns="http://www.w3.org/2000/svg" xmlns:xlink="http://www.w3.org/1999/xlink">
    <!-- Generator: Sketch 55.2 (78181) - https://sketchapp.com -->
    <title>nyt-25px</title>
    <desc>Created with Sketch.</desc>
    <g id="nyt-25px" stroke="none" stroke-width="1" fill="none" fill-rule="evenodd">
        <g id="nyt">
            <polygon id="container" points="0 0 140 0 140 25 0 25"/>
            <g id="Shape" transform="translate(0.000000, 5.000000)" fill-rule="nonzero">
                <g id="path-1-link" fill="#FFFFFF">
                    <path d="M10.476135,1.95464286 C10.476135,0.398350285 9.06725641,-0.0516620004 7.89319083,0.00458952342 L7.89319083,0.248198571 C8.59763018,0.265915523 9.13950658,0.510705714 9.13950658,0.997421809 C9.13950658,1.33572829 8.90483567,1.76619276 8.2002541,1.76619276 C7.64031517,1.76619276 6.55656235,1.42868352 5.6895601,1.12867533 C4.7322451,0.791166095 3.82911774,0.472407428 3.07049078,0.472407428 C1.58936191,0.472407428 0.469483998,1.616986 0.469483998,3.02247714 C0.469483998,4.16705571 1.30036116,4.57876971 1.64354955,4.72957105 L1.75192484,4.5420659 C1.53517428,4.391176 1.31842371,4.22330724 1.31842371,3.77329495 C1.31842371,3.43498838 1.60742446,2.89122352 2.36605144,2.89122352 C3.05242823,2.89122352 3.95555557,3.20998229 5.14768367,3.566242 C6.17724886,3.86625019 7.31518933,4.1475079 7.92931592,4.22330724 L7.92931592,6.66007657 L6.77331291,7.65465105 L6.77331291,7.74855124 L7.92931592,8.79858 L7.92931592,12.1549217 C7.33325188,12.5111814 6.64687508,12.604934 6.05081104,12.604934 C4.94899566,12.604934 3.90136793,12.3049258 3.07049078,11.3486496 L6.17724886,9.79235714 L6.17724886,4.41096 L2.36605144,6.17350819 C2.76342747,5.12347943 3.55817954,4.42971048 4.37099416,3.92344667 L4.31694874,3.73594152 C2.05913036,4.37345895 4.26325641e-14,6.52897067 4.26325641e-14,9.19234076 C4.26325641e-14,12.3799278 2.49263149,14.7416952 5.32845138,14.7416952 C8.39908435,14.7416952 10.3498395,12.2486743 10.3137144,9.604852 L10.1330889,9.58713495 C9.68152524,10.5996627 9.03127351,11.5559389 8.18233377,12.0622027 L8.18233377,8.79961343 L9.410587,7.78708571 L9.39352003,7.67458267 L8.1833294,6.66125771 L8.1833294,4.22448838 C9.30320729,4.22448838 10.4772729,3.43696686 10.4772729,1.95567629 L10.476135,1.95464286 Z M3.88330539,10.6736312 L2.96211548,11.142394 C2.43830162,10.4298746 2.09511323,9.47359838 2.09511323,8.142312 C2.09511323,7.59854714 2.14915864,6.92273143 2.3118638,6.4547659 L3.90136793,5.7234959 L3.88330539,10.6736312 Z M11.9211388,12.4174289 L10.9096362,13.2057182 L11.0362162,13.3548364 L11.5239051,12.9985767 L13.2217844,14.610353 L15.4976654,13.0353099 L15.38929,12.866703 L14.793226,13.2604638 L14.0526615,12.4924604 L14.0526615,7.09231286 L14.6667882,6.62278229 L15.9672916,7.710312 L15.9672916,12.4924604 C15.9672916,15.4730242 15.3351025,15.9605376 14.034599,16.4488187 L14.034599,16.6558125 C16.1840421,16.7488269 18.1167347,15.9987769 18.1167347,12.17444 L18.1167347,7.03603171 L18.8031115,6.47271914 L18.6765314,6.30470267 L18.0804674,6.79144829 L16.220025,5.12265267 L14.0525194,6.81019886 L14.0525194,0.323289142 L13.8898142,0.323289142 L11.1984947,2.19834048 L11.1984947,2.36724267 C11.4692907,2.53673552 11.9209966,2.64835276 11.9209966,3.58679371 L11.9211388,12.4174289 Z M25.793175,11.5736558 L23.9327326,13.0736969 L22.0000401,11.4978565 L22.0000401,10.5603309 L25.5944869,8.0673099 L25.5944869,7.95392105 L23.8062948,5.10384314 L19.886722,7.27967029 L19.886722,12.4540441 L19.1100325,13.0735787 L19.2366126,13.2415951 L19.941052,12.6603292 L22.5059337,14.5923997 L25.9378176,11.7798229 L25.793175,11.5736558 Z M22.0000401,10.2798705 L22.0000401,6.41726486 L22.1266202,6.32336467 L23.7883744,9.04218895 L22.0000401,10.2798705 Z M40.3147232,1.24212333 C40.3147232,0.998219047 40.2603933,0.792111047 40.1702228,0.511621047 L39.9895973,0.511621047 C39.7549264,1.16788905 39.4657835,1.52338105 38.7252191,1.52338105 C38.0749673,1.52338105 37.5692161,1.11163752 37.2982778,0.810861523 C37.2982778,0.828578571 35.1307722,3.41718286 35.1307722,3.41718286 L35.3113977,3.58667562 L35.9255243,2.85540562 C36.3951505,3.2304159 36.7375708,3.58667562 37.7859666,3.60462886 L37.7859666,10.1673083 L33.3425801,2.17882219 C32.9993916,1.57880581 32.4213901,0.678781142 31.3556999,0.678781142 C30.1635718,0.678781142 29.0617564,1.74832809 29.2062567,3.54837733 L29.4230073,3.54837733 C29.4773373,3.060864 29.7120081,2.53584971 30.2358219,2.53584971 C30.6512605,2.53584971 31.030574,2.94759324 31.229262,3.32337124 L31.229262,5.89219143 C29.8565084,5.89219143 28.9533811,6.54845933 28.9533811,7.71022343 C28.9533811,8.31100752 29.2423819,9.32276752 30.1996969,9.51104038 L30.2167639,9.34154752 C30.0901838,9.21044162 29.9630348,9.06102809 29.9630348,8.79858 C29.9630348,8.36731819 30.2700982,8.08606038 30.830037,8.08606038 C30.920492,8.08606038 31.1732254,8.10377743 31.2274131,8.12356152 L31.2274131,11.4611528 C29.6198464,11.4788698 28.3735307,12.397881 28.3735307,13.9737214 C28.3735307,15.4737624 29.6198464,16.1862819 30.9203498,16.1104826 L30.9374168,15.9238633 C30.1246022,15.8299631 29.691101,15.43635 29.691101,14.8925851 C29.691101,14.2175667 30.1607273,13.8621043 30.7567914,13.8621043 C31.3709179,13.8621043 31.9127943,14.255865 32.2921078,14.7058773 L34.477676,12.174558 L34.2970505,12.0050652 L33.7371116,12.6613332 C32.9062343,11.8933299 32.4366081,11.6113045 31.4792931,11.4620682 L31.4792931,3.56653733 L37.6024966,14.6488875 L38.0359978,14.6488875 L38.0359978,3.60403829 C39.2108029,3.52992209 40.3126182,2.61105838 40.3126182,1.24227095 L40.3147232,1.24212333 Z M45.7876749,11.5736558 L43.9272326,13.0744646 L41.99454,11.4986538 L41.99454,10.5611281 L45.588987,8.06807771 L45.588987,7.95468876 L43.8007947,5.10461086 L39.881222,7.280438 L39.881222,12.4548118 L39.1045326,13.0743465 L39.2311126,13.2423629 L39.9355519,12.661097 L42.5004336,14.593197 L45.9323175,11.7806202 L45.7878171,11.5736263 L45.7876749,11.5736558 Z M41.99454,10.2798705 L41.99454,6.41726486 L42.1211201,6.32336467 L43.7828744,9.04218895 L41.99454,10.2798705 Z M58.2139307,5.96725257 L57.6539918,6.39851429 L56.2089965,5.12347943 L54.5291797,6.69929029 L55.2155565,7.37354095 L55.2155565,13.3174535 L53.3731767,12.0986702 L53.3731767,7.2610379 L53.9692407,6.82977609 L52.1991111,5.12268219 L50.5554193,6.69852257 L51.2417961,7.37274371 L51.2417961,13.0174452 L51.0071253,13.1665635 L49.3995586,11.9852812 L49.3995586,7.24216924 C49.3995586,6.15463952 48.8938072,5.83588086 48.225493,5.40461905 C47.665554,5.04835933 47.4126784,4.74835114 47.4126784,4.20458619 C47.4126784,3.7545739 47.8461795,3.49206676 48.0629301,3.36081314 C48.0458631,3.34309619 48.0458631,3.173308 48.0458631,3.173308 C47.4678616,3.15559105 45.8602949,3.81082543 45.8241698,5.33038476 C45.8071028,6.11790629 46.1673583,6.45464771 46.5466718,6.83042571 C46.9259853,7.20466829 47.2691735,7.56169571 47.2691735,8.217196 L47.2691735,12.7735706 L46.456359,13.4298385 L46.582939,13.5993313 L47.3235035,12.9993149 L49.3284462,14.6306095 L51.2250136,13.299323 L53.3202691,14.6306095 L57.3482171,12.1930429 L57.3482171,6.90463048 L58.3416486,6.15461 L58.2150686,5.96710486 L58.2139307,5.96725257 Z M72.2846549,1.63588409 L71.5260279,2.34840362 L69.8281485,0.810064285 L67.3535795,2.72341381 L67.3535795,0.923364666 L67.1007039,0.923364666 L67.1547493,13.6924638 C66.9018737,13.6549627 66.2696846,13.5049587 65.691683,13.4119443 L65.6376376,2.74210533 C65.6376376,1.95458381 65.0957611,0.867054 63.7410702,0.867054 C62.350254,0.867054 61.4471267,1.97333429 61.4471267,3.07961457 L61.6638772,3.07961457 C61.7361274,2.61085171 61.9709405,2.19834048 62.4225042,2.19834048 C62.8921305,2.19834048 63.2895064,2.49834867 63.2895064,3.54837733 L63.2895064,6.62346143 C61.8986904,6.67956533 61.1039383,7.48598505 61.1039383,8.47976219 C61.1039383,9.09852905 61.3750187,10.0548052 62.350254,10.0923063 L62.3863791,9.90480114 C62.0612533,9.75568286 61.989003,9.54854133 61.989003,9.36103629 C61.989003,8.91182124 62.4044417,8.72431609 62.9824432,8.72431609 L63.2532391,8.72431609 L63.2532391,13.5994494 C62.1514238,13.9932102 61.6456724,14.8369832 61.6456724,15.7932594 C61.6456724,17.1057952 62.6571751,18.0995725 64.1383039,18.0995725 C65.1859317,18.0995725 66.0890591,17.9120673 67.046374,17.6870611 C67.8230635,17.5181589 68.762316,17.3308014 69.2138796,17.3308014 C69.7918812,17.3308014 70.0447568,17.6119114 70.0447568,18.043321 C70.0447568,18.5862885 69.8098015,18.7933413 69.5028805,18.887094 L69.5390055,19.0745991 C70.7853212,18.8309901 71.5078232,18.0612742 71.5078232,16.8995396 C71.5078232,15.6995068 70.4060077,14.9869873 69.1777545,14.9869873 C68.5455654,14.9869873 67.2992497,15.1933906 66.3599972,15.4190169 C65.3123695,15.6620353 64.2466792,15.7745089 63.9215534,15.7745089 C63.3977395,15.7745089 62.7474879,15.5120016 62.7474879,14.7807317 C62.7474879,14.1244638 63.2713017,13.5994494 64.5718051,13.5994494 C65.2762444,13.5994494 66.0709965,13.7119525 66.9379988,13.9174108 C67.8591886,14.1244047 68.6720033,14.386971 69.4667553,14.386971 C70.5685707,14.386971 71.5620107,13.9744596 71.5620107,12.305664 L71.5620107,2.59210124 L72.4470755,1.8038119 L72.2846549,1.63588409 Z M69.1778968,6.49226686 C68.9790665,6.71727305 68.6540829,6.94227924 68.2747694,6.94227924 C67.8593309,6.94227924 67.5522676,6.679772 67.3535795,6.49226686 L67.3535795,2.98592105 L68.1302691,2.44215619 L69.1778968,3.43593333 L69.1778968,6.49226686 Z M69.1778968,8.83608095 C68.9972713,8.64946171 68.6721455,8.44232019 68.2747694,8.44232019 C67.8773934,8.44232019 67.5161425,8.68533867 67.3535795,8.83608095 L67.3535795,6.77352457 C67.5162847,6.92264286 67.8773934,7.18523857 68.2747694,7.18523857 C68.6721455,7.18523857 68.9972713,6.96111829 69.1778968,6.77352457 L69.1778968,8.83608095 Z M69.1778968,12.5111814 C69.1778968,13.1486989 68.7624582,13.7666686 67.9677061,13.7666686 C67.841126,13.7666686 67.4800174,13.7489515 67.3535795,13.7300533 L67.3535795,9.11742724 C67.534205,8.94793448 67.8593309,8.68539771 68.2747694,8.68539771 C68.6540829,8.68539771 68.9611462,8.91128971 69.1778968,9.11742724 L69.1778968,12.5111814 Z M79.5457988,6.92273143 L77.0892924,5.10393171 L73.4045327,7.29853895 L73.4045327,12.4361794 L72.6459058,13.0736969 L72.7542811,13.2417132 L73.3503451,12.7362171 L75.788789,14.5925179 L79.5457988,12.2112028 L79.5457988,6.92273143 Z M75.5178508,11.8924146 L75.5178508,6.26726076 L77.4324808,7.69229971 L77.4324808,13.3174535 L75.5178508,11.8924146 Z M86.7888798,5.31098457 C86.7888798,5.32870162 86.6443798,5.31098457 86.6443798,5.31098457 C86.4455498,5.4976039 86.1928164,5.628946 85.9760656,5.628946 C85.6870648,5.628946 85.3077515,5.44232676 85.1271256,5.19848152 L84.9826256,5.19848152 L83.7001848,6.66022429 L82.381619,5.19848152 L80.1418628,6.81022838 L80.2502382,6.99684762 L80.8463022,6.58513362 L81.6229917,7.44765714 L81.6229917,12.416543 L80.611489,13.2048323 L80.7380691,13.3539506 L81.2257579,12.9976909 L83.0500748,14.6094671 L85.4162689,12.9781726 L85.3078939,12.8092703 L84.6395789,13.2217816 L83.7545147,12.3959618 L83.7545147,6.86456057 C84.133828,7.29661962 84.5853914,7.67162981 85.1092055,7.67162981 C86.120708,7.67316533 86.6806472,6.51063352 86.7890222,5.31063029 L86.7888798,5.31098457 Z M95.9104662,12.8674412 L93.3275221,14.6299893 L89.8233881,9.13608924 L92.2979571,5.14299771 L92.460662,5.12528067 C92.7496628,5.42528886 93.2554145,5.74404762 93.7250403,5.74404762 C94.2488545,5.74404762 94.6101054,5.44403943 94.8268562,5.12528067 C94.8268562,5.12528067 94.9713562,5.14299771 94.9713562,5.12528067 C94.8811861,6.71907429 93.8514778,7.61909886 93.0747887,7.61909886 C92.2800371,7.61909886 91.9007229,7.24408867 91.4852846,6.98158143 L91.2506136,7.33784114 L95.0437486,13.1692507 L95.8023752,12.6817373 L95.9104662,12.8674412 Z M87.5655697,12.4174289 L86.5540672,13.2057182 L86.6803624,13.3548364 L87.1680515,12.9985767 L88.8659307,14.610353 L91.1418114,13.0353099 L91.0152315,12.866703 L90.4372298,13.2604638 L89.6966657,12.4924604 L89.6966657,0.323377714 L89.5339607,0.323377714 L86.7884533,2.21717952 L86.7884533,2.38608181 C87.0592492,2.55468876 87.5651433,2.62969086 87.5651433,3.58611457 L87.5655697,12.4174289 Z M108.499322,1.95464286 C108.499322,0.398350285 107.090443,-0.0516620004 105.916377,0.00458952342 L105.916377,0.248198571 C106.620818,0.265915523 107.162693,0.510705714 107.162693,0.997421809 C107.162693,1.33572829 106.928022,1.76619276 106.223441,1.76619276 C105.663502,1.76619276 104.579749,1.42868352 103.712746,1.12867533 C102.755432,0.791166095 101.852305,0.472407428 101.093678,0.472407428 C99.612549,0.472407428 98.4926706,1.616986 98.4926706,3.02247714 C98.4926706,4.16705571 99.3235484,4.57876971 99.6667367,4.72957105 L99.7751121,4.5420659 C99.5583612,4.39206181 99.3416113,4.22407495 99.3416113,3.77406267 C99.3416113,3.43578571 99.6306119,2.89202086 100.389238,2.89202086 C101.075616,2.89202086 101.978743,3.21077952 103.170871,3.56703924 C104.200436,3.86704752 105.338377,4.14830514 105.952503,4.22407495 L105.952503,6.6608739 L104.7965,7.65541876 L104.7965,7.74931895 L105.952503,8.79934762 L105.952503,12.1556894 C105.356439,12.5119491 104.670062,12.6057017 104.073998,12.6057017 C102.972183,12.6057017 101.924555,12.3056935 101.093678,11.3494174 L104.200436,9.79312486 L104.200436,4.41096 L100.389238,6.1742759 C100.786614,5.12347943 101.581367,4.43047829 102.394181,3.92344667 L102.340136,3.73594152 C100.082318,4.37345895 98.0231869,6.5297679 98.0231869,9.19234076 C98.0231869,12.3799278 100.515818,14.7416952 103.351638,14.7416952 C106.422272,14.7416952 108.373027,12.2486743 108.336902,9.604852 L108.156276,9.58713495 C107.704712,10.5996627 107.05446,11.5559389 106.205521,12.0622027 L106.205521,8.79961343 L107.433774,7.78708571 L107.416707,7.67458267 L106.206516,6.66125771 L106.206516,4.22448838 C107.326394,4.22448838 108.500461,3.43696686 108.500461,1.95567629 L108.499322,1.95464286 Z M101.906492,10.6736312 L100.985303,11.142394 C100.461489,10.4298746 100.1183,9.47359838 100.1183,8.142312 C100.1183,7.59854714 100.172346,6.92273143 100.335051,6.4547659 L101.924555,5.7234959 L101.907488,10.6736312 L101.906492,10.6736312 Z M111.100329,1.22257552 L110.991954,1.20485857 L109.4747,2.53614495 L109.4747,2.648648 L110.757141,4.14868905 L110.883721,4.14868905 L112.400974,2.83615314 L112.383908,2.74225295 L111.101466,1.22269371 L111.100329,1.22257552 Z M113.412334,12.8674412 L112.834333,13.261202 L112.093769,12.4931987 L112.093769,7.05398505 L112.81627,6.49146962 L112.671771,6.30485038 L112.111832,6.75409495 L110.793266,5.12280029 L108.62576,6.69861114 L108.75234,6.90501438 L109.294216,6.52923638 L109.962531,7.39176 L109.962531,12.4918994 L108.987154,13.2598731 L109.095528,13.4098773 L109.60128,13.034867 L111.263034,14.6099101 L113.538915,13.034867 L113.412334,12.8674412 Z M126.056118,12.773541 L125.514242,13.1485512 L124.701428,12.3797802 L124.701428,7.03588409 L125.478117,6.43586771 L125.351536,6.26637486 L124.683222,6.79138924 L122.949218,5.12259362 L120.709462,6.77263876 L118.993519,5.12259362 L116.78989,6.75388819 L115.435198,5.12259362 L113.267692,6.69840438 L113.376068,6.90480771 L113.917944,6.52902971 L114.658508,7.37280276 L114.658508,12.4729422 L114.062444,13.0917091 L115.79645,14.6097034 L117.476266,13.0346603 L116.78989,12.3604391 L116.78989,7.03606124 L117.44014,6.58604895 L118.614206,7.710312 L118.614206,12.4737099 L118.036205,13.0924769 L119.788271,14.6105007 L121.431963,13.0354576 L120.745587,12.3612069 L120.745587,6.99779257 L121.323588,6.60403171 L122.569904,7.710312 L122.569904,12.3979401 L122.064152,12.941705 L123.834282,14.6105007 L126.16435,12.9612233 L126.056118,12.773541 Z M132.648948,11.5735082 L130.788505,13.074317 L128.855813,11.4985061 L128.855813,10.5609805 L132.45026,8.06793009 L132.45026,7.95454114 L130.662067,5.10446324 L126.742494,7.28029038 L126.742494,12.6241865 L129.361564,14.5922226 L132.793448,11.7796457 L132.648948,11.5735082 Z M128.855813,10.2797229 L128.855813,6.41711724 L128.982393,6.32321695 L130.644147,9.04204133 L128.855813,10.2797229 Z M139.584966,9.54532286 L138.121899,8.40154152 C139.097277,7.52026743 139.47659,6.3381879 139.47659,5.53271314 C139.47659,5.42021 139.459523,5.21395438 139.440465,5.02644924 L139.259839,5.02644924 C139.115339,5.43896057 138.826338,5.79522029 138.230274,5.79522029 C137.652272,5.79522029 137.236834,5.45771105 136.875583,5.04440248 L133.461762,6.97650257 L133.461762,9.84533095 L134.72614,10.8766091 C133.4437,12.0578915 133.208886,12.882914 133.208886,13.4829305 C133.208886,14.270452 133.552074,14.8337351 134.202326,15.0954746 L134.292497,14.9259817 C134.130076,14.7768634 133.985434,14.6820774 133.985434,14.3259653 C133.985434,14.0634582 134.292497,13.6884479 134.870498,13.6884479 C135.611063,13.6884479 136.062627,14.2134623 136.297439,14.4947199 C136.297439,14.4770029 139.584824,12.450914 139.584824,12.450914 L139.584966,9.54532286 Z M138.772151,7.18196095 C138.266399,8.11948657 137.092334,9.03905895 136.442082,9.56407333 L135.611206,8.88905486 L135.611206,6.09522848 C135.936331,6.84524895 136.731083,7.48276638 137.598086,7.48276638 C138.103837,7.48276638 138.374775,7.38827562 138.772151,7.18196095 Z M137.435522,13.4454294 C137.056208,12.5641553 136.171145,11.9266379 135.268017,11.9266379 C135.051266,11.9266379 134.419077,11.9266379 133.841076,12.3024159 C134.184264,11.7016317 135.195767,10.576601 136.49627,9.77109676 L137.435522,10.5211171 L137.435522,13.4454294 Z" id="path-1"/>
                </g>
                <g id="path-1-link" transform="translate(1.000000, 0.000000)" fill="#758693" fill-opacity="0.7">
                    <path d="M10.3571801,1.9469984 C10.3571801,0.39679236 8.96429912,-0.0514599656 7.80356487,0.00457156332 L7.80356487,0.247227877 C8.5,0.26487554 9.0357289,0.508708377 9.0357289,0.993520967 C9.0357289,1.33050435 8.80372265,1.75928532 8.10714149,1.75928532 C7.55356058,1.75928532 6.4821136,1.42309605 5.62495602,1.12426117 C4.67851119,0.788071901 3.78563871,0.470559872 3.03562583,0.470559872 C1.57131496,0.470559872 0.46415308,1.61066209 0.46415308,3.01065648 C0.46415308,4.1507587 1.28559576,4.56086252 1.6248873,4.71107409 L1.732032,4.52430226 C1.51774261,4.37400247 1.30345321,4.20679023 1.30345321,3.75853791 C1.30345321,3.42155442 1.58917241,2.87991618 2.3391853,2.87991618 C3.01776838,2.87991618 3.91064085,3.19742831 5.08923252,3.55229472 C6.10710716,3.8511296 7.23212649,4.13128734 7.83927976,4.20679023 L7.83927976,6.63402957 L6.69640299,7.62471435 L6.69640299,7.7182473 L7.83927976,8.76416949 L7.83927976,12.1073848 C7.24998394,12.4622513 6.57140085,12.5556372 5.98210501,12.5556372 C4.89280058,12.5556372 3.8570685,12.2568023 3.03562583,11.304266 L6.10710716,9.75406006 L6.10710716,4.3937091 L2.3391853,6.14936411 C2.73204918,5.10344193 3.51777696,4.41238624 4.32136219,3.90810239 L4.26793046,3.72133056 C2.03574925,4.35635472 0,6.50343641 0,9.15639029 C0,12.331511 2.46432804,14.6840417 5.26794764,14.6840417 C8.30371405,14.6840417 10.2323187,12.2007708 10.1966037,9.56728823 L10.0180292,9.54964047 C9.57159302,10.5582083 8.9287248,11.5107446 8.08942464,12.0150284 L8.08942464,8.76519888 L9.30373124,7.75663107 L9.28685807,7.64456802 L8.09040896,6.63520609 L8.09040896,4.20796676 C9.19757081,4.20796676 10.3583051,3.42352516 10.3583051,1.94802779 L10.3571801,1.9469984 Z M3.83921106,10.6318876 L2.92848112,11.098817 C2.41061508,10.3890842 2.07132354,9.43654793 2.07132354,8.1104681 C2.07132354,7.56882986 2.12475528,6.8956572 2.28561294,6.42952185 L3.8570685,5.70111179 L3.83921106,10.6318876 Z M11.7857762,12.3688653 L10.785759,13.1540717 L10.9109017,13.3026067 L11.3930529,12.9477403 L13.0716531,14.5532132 L15.3216918,12.9843299 L15.214547,12.8163825 L14.6252512,13.2086033 L13.8930957,12.4436034 L13.8930957,7.06457541 L14.5002491,6.59688114 L15.7859855,7.68015762 L15.7859855,12.4436034 C15.7859855,15.4125105 15.1609748,15.8981173 13.8752383,16.3844887 L13.8752383,16.590673 C16.0002748,16.6833236 17.9110219,15.936207 17.9110219,12.1268268 L17.9110219,7.00851438 L18.5896051,6.44740488 L18.4644623,6.2800455 L17.8751665,6.7648875 L16.0358491,5.1026184 L13.8929552,6.78356474 L13.8929552,0.322024775 L13.7320975,0.322024775 L11.0713375,2.18974294 L11.0713375,2.35798457 C11.3390587,2.52681456 11.7856356,2.63799527 11.7856356,3.57276606 L11.7857762,12.3688653 Z M25.5002975,11.5283922 L23.6609801,13.0225667 L21.750233,11.4528893 L21.750233,10.5190303 L25.3038655,8.03575933 L25.3038655,7.92281393 L23.535978,5.08388244 L19.6609114,7.2512001 L19.6609114,12.4053374 L18.8930411,13.022449 L19.0181839,13.1898084 L19.7146244,12.6108158 L22.2503823,14.5353301 L25.6432977,11.733753 L25.5002975,11.5283922 Z M21.750233,10.2396668 L21.750233,6.39216747 L21.8753758,6.29863452 L23.5182611,9.00682571 L21.750233,10.2396668 Z M39.8569557,1.23726548 C39.8569557,0.994315087 39.8032428,0.789013158 39.7140961,0.50962013 L39.5355216,0.50962013 C39.3035154,1.16332152 39.0176557,1.51742322 38.2855002,1.51742322 C37.642632,1.51742322 37.1426235,1.10728999 36.8747616,0.807690302 C36.8747616,0.82533806 34.7318677,3.40381853 34.7318677,3.40381853 L34.9104422,3.57264843 L35.5175955,2.84423836 C35.9818892,3.21778201 36.3204214,3.57264843 37.3569128,3.59053145 L37.3569128,10.1275448 L32.9639802,2.17030099 C32.6246886,1.57263122 32.0532502,0.676126476 30.9996608,0.676126476 C29.8210691,0.676126476 28.7317647,1.74149052 28.8746242,3.53449992 L29.0889136,3.53449992 C29.1426267,3.04889321 29.3746328,2.52593221 29.8924988,2.52593221 C30.3032202,2.52593221 30.6782267,2.93606544 30.8746586,3.31037381 L30.8746586,5.86914756 C29.5174924,5.86914756 28.6246199,6.52284886 28.6246199,7.68006939 C28.6246199,8.27850387 28.9103392,9.28630696 29.856784,9.4738435 L29.8736572,9.30501352 C29.7485144,9.17442036 29.6228092,9.02559118 29.6228092,8.76416949 C29.6228092,8.33459431 29.9263859,8.05443648 30.4799668,8.05443648 C30.5693946,8.05443648 30.8192583,8.07208423 30.8728307,8.09179096 L30.8728307,11.4163292 C29.2835177,11.4339769 28.0513537,12.349394 28.0513537,13.9190714 C28.0513537,15.4132458 29.2835177,16.1229787 30.569254,16.0474758 L30.5861272,15.8615864 C29.782542,15.7680535 29.3539632,15.3759797 29.3539632,14.8343415 C29.3539632,14.161963 29.8182569,13.8078908 30.4075528,13.8078908 C31.014706,13.8078908 31.5504295,14.2001115 31.925436,14.6483639 L34.0861874,12.1269443 L33.9076128,11.9581144 L33.3540319,12.6118158 C32.5325892,11.8468161 32.0682955,11.5658936 31.1218506,11.417241 L31.1218506,3.5525889 L37.1755261,14.591597 L37.6041049,14.591597 L37.6041049,3.58994319 C38.7655703,3.51611686 39.8548747,2.60084674 39.8548747,1.23741253 L39.8569557,1.23726548 Z M45.2677629,11.5283922 L43.4284456,13.0233314 L41.5176985,11.4536835 L41.5176985,10.5198244 L45.0713311,8.03652414 L45.0713311,7.92357864 L43.3034435,5.08464715 L39.4283769,7.25196482 L39.4283769,12.4061021 L38.6605066,13.0232138 L38.7856494,13.1905731 L39.4820899,12.6115805 L42.0178477,14.5361243 L45.4107631,11.7345472 L45.2679035,11.5283628 L45.2677629,11.5283922 Z M41.5176985,10.2396668 L41.5176985,6.39216747 L41.6428413,6.29863452 L43.2857267,9.00682571 L41.5176985,10.2396668 Z M57.5529206,5.94391514 L56.9993396,6.37349023 L55.5707521,5.10344193 L53.9100093,6.67308992 L54.5885924,7.34470365 L54.5885924,13.2653701 L52.7671326,12.0513533 L52.7671326,7.23264059 L53.3564284,6.80306541 L51.6063983,5.10264781 L49.9813704,6.67232521 L50.6599534,7.34390953 L50.6599534,12.9665351 L50.4279473,13.1150702 L48.8386342,11.9384078 L48.8386342,7.21384572 C48.8386342,6.13056924 48.3386256,5.81305721 47.6779,5.38348203 C47.124319,5.02861562 46.8743147,4.72978073 46.8743147,4.1881424 C46.8743147,3.73989007 47.3028935,3.47840958 47.517183,3.34766928 C47.5003098,3.33002161 47.5003098,3.16089745 47.5003098,3.16089745 C46.9288714,3.14324979 45.3395584,3.7959216 45.3038435,5.30953807 C45.2869703,6.09397966 45.6431351,6.42940413 46.0181415,6.80371249 C46.393148,7.17649143 46.7324394,7.53212256 46.7324394,8.18505924 L46.7324394,12.7236142 L45.9288543,13.3773155 L46.053997,13.5461455 L46.7861524,12.9484756 L48.7683293,14.5733904 L50.6433615,13.2473105 L52.7148257,14.5733904 L56.697037,12.1453569 L56.697037,6.87762704 L57.6791882,6.13053983 L57.5540455,5.94376801 L57.5529206,5.94391514 Z M71.4638738,1.62948628 L70.7138609,2.3392192 L69.0352606,0.806896182 L66.5887901,2.71276276 L66.5887901,0.919753455 L66.3387858,0.919753455 L66.3922175,13.6389137 C66.1422133,13.6015593 65.5172026,13.4521419 64.9457641,13.3594913 L64.8923324,2.73138118 C64.8923324,1.94693959 64.3566088,0.863663014 63.0173002,0.863663014 C61.6422765,0.863663014 60.7494041,1.96561673 60.7494041,3.06757045 L60.9636934,3.06757045 C61.0351232,2.60064088 61.2672701,2.18974294 61.7137063,2.18974294 C62.1780001,2.18974294 62.5708638,2.48857783 62.5708638,3.53449992 L62.5708638,6.59755762 C61.1958403,6.65344211 60.4101125,7.45670799 60.4101125,8.44659855 C60.4101125,9.06294546 60.6781149,10.0154817 61.6422765,10.0528361 L61.6779915,9.8660643 C61.3565574,9.7175292 61.2851275,9.51119779 61.2851275,9.32442606 C61.2851275,8.87696785 61.695849,8.69019603 62.2672873,8.69019603 L62.5350084,8.69019603 L62.5350084,13.5462631 C61.445704,13.9384839 60.9456954,14.778957 60.9456954,15.7314933 C60.9456954,17.0388959 61.9457126,18.0287866 63.4100234,18.0287866 C64.4457556,18.0287866 65.338628,17.8420148 66.2850729,17.6178885 C67.0529432,17.4496468 67.9815306,17.2630221 68.4279667,17.2630221 C68.9994052,17.2630221 69.2494095,17.5430327 69.2494095,17.9727551 C69.2494095,18.5135991 69.017122,18.7198422 68.713686,18.8132282 L68.7494009,19 C69.9815649,18.7573437 70.6958629,17.9906381 70.6958629,16.8334469 C70.6958629,15.6381073 69.6065584,14.9283745 68.3922518,14.9283745 C67.7672411,14.9283745 66.5350771,15.1339705 65.6064897,15.3587144 C64.5707576,15.6007824 63.5171682,15.7128161 63.195734,15.7128161 C62.677868,15.7128161 62.0349999,15.4513355 62.0349999,14.7229255 C62.0349999,14.0692242 62.5528658,13.5462631 63.8386023,13.5462631 C64.5350427,13.5462631 65.3207705,13.6583262 66.1779282,13.8629809 C67.0886581,14.0691653 67.8922433,14.3307047 68.677971,14.3307047 C69.7672755,14.3307047 70.7494352,13.9198067 70.7494352,12.2575376 L70.7494352,2.58196374 L71.6244502,1.79675734 L71.4638738,1.62948628 Z M68.3923925,6.46687614 C68.1958199,6.69100235 67.8745264,6.91512856 67.49952,6.91512856 C67.0887901,6.91512856 66.7852221,6.65364797 66.5887901,6.46687614 L66.5887901,2.97424335 L67.3566605,2.43260511 L68.3923925,3.42249568 L68.3923925,6.46687614 Z M68.3923925,8.80152378 C68.213818,8.6156344 67.8923839,8.40930298 67.49952,8.40930298 C67.1066561,8.40930298 66.7495072,8.65137104 66.5887901,8.80152378 L66.5887901,6.74703388 C66.7496478,6.89556898 67.1066561,7.1571377 67.49952,7.1571377 C67.8923839,7.1571377 68.213818,6.93389393 68.3923925,6.74703388 L68.3923925,8.80152378 Z M68.3923925,12.4622513 C68.3923925,13.0972754 67.9816712,13.7128283 67.1959434,13.7128283 C67.0708006,13.7128283 66.7137922,13.6951805 66.5887901,13.6763563 L66.5887901,9.08176975 C66.7673646,8.91293986 67.0887901,8.65142985 67.49952,8.65142985 C67.8745264,8.65142985 68.1781031,8.87643841 68.3923925,9.08176975 L68.3923925,12.4622513 Z M78.6425686,6.8956572 L76.2139554,5.08397066 L72.5710357,7.26999498 L72.5710357,12.3875426 L71.8210228,13.0225667 L71.9281675,13.189926 L72.5174633,12.6864069 L74.9282191,14.5354478 L78.6425686,12.1634458 L78.6425686,6.8956572 Z M74.6603573,11.8459043 L74.6603573,6.24275003 L76.5532469,7.66221577 L76.5532469,13.2653701 L74.6603573,11.8459043 Z M85.8034055,5.29021375 C85.8034055,5.30786151 85.6605463,5.29021375 85.6605463,5.29021375 C85.463974,5.47610323 85.2141104,5.60693166 84.9998207,5.60693166 C84.7141014,5.60693166 84.3390952,5.42104227 84.1605203,5.17815069 L84.0176611,5.17815069 L82.7497822,6.6341767 L81.4461885,5.17815069 L79.2318644,6.78359415 L79.3390091,6.96948353 L79.9283049,6.55937971 L80.6961752,7.41852998 L80.6961752,12.367983 L79.6961581,13.1531893 L79.8213009,13.3017244 L80.303452,12.946858 L82.1070541,14.5523308 L84.4463804,12.927416 L84.339236,12.7591743 L83.6785096,13.1700723 L82.8034952,12.3474822 L82.8034952,6.83771385 C83.1785014,7.26808315 83.6249374,7.64162671 84.1428037,7.64162671 C85.1428207,7.64315623 85.6964019,6.48517098 85.8035463,5.28986085 L85.8034055,5.29021375 Z M94.8214177,12.8171178 L92.2678026,14.5727727 L88.8034574,9.10035876 L91.2499281,5.12288388 L91.4107855,5.10523612 C91.6965048,5.404071 92.1965137,5.72158313 92.660807,5.72158313 C93.1786733,5.72158313 93.5358223,5.42274824 93.7501119,5.10523612 C93.7501119,5.10523612 93.8929711,5.12288388 93.8929711,5.10523612 C93.8038249,6.69279655 92.7858088,7.5893012 92.0179389,7.5893012 C91.2322116,7.5893012 90.8572045,7.21575764 90.4464834,6.95427705 L90.214477,7.30914346 L93.9645416,13.1177468 L94.7145541,12.6321401 L94.8214177,12.8171178 Z M86.5712762,12.3688653 L85.5712592,13.1540717 L85.6961203,13.3026067 L86.1782718,12.9477403 L87.8568718,14.5532132 L90.1069103,12.9843299 L89.9817677,12.8163825 L89.4103291,13.2086033 L88.6781739,12.4436034 L88.6781739,0.322113 L88.5173165,0.322113 L85.8029838,2.20850831 L85.8029838,2.37675004 C86.0707049,2.54469758 86.5708546,2.61940635 86.5708546,3.57208957 L86.5712762,12.3688653 Z M107.267329,1.9469984 C107.267329,0.39679236 105.874448,-0.0514599656 104.713713,0.00457156332 L104.713713,0.247227877 C105.410149,0.26487554 105.945877,0.508708377 105.945877,0.993520967 C105.945877,1.33050435 105.713871,1.75928532 105.01729,1.75928532 C104.46371,1.75928532 103.392262,1.42309605 102.535104,1.12426117 C101.58866,0.788071901 100.695788,0.470559872 99.9457745,0.470559872 C98.4814639,0.470559872 97.3743016,1.61066209 97.3743016,3.01065648 C97.3743016,4.1507587 98.1957449,4.56086252 98.5350363,4.71107409 L98.6421812,4.52430226 C98.4278915,4.37488482 98.2136027,4.20755494 98.2136027,3.75930262 C98.2136027,3.42234864 98.4993217,2.8807104 99.2493338,2.8807104 C99.9279176,2.8807104 100.82079,3.19822243 101.999382,3.55308884 C103.017256,3.85192382 104.142276,4.13208146 104.749429,4.20755494 L104.749429,6.63482378 L103.606552,7.62547906 L103.606552,7.71901202 L104.749429,8.76493411 L104.749429,12.1081496 C104.160133,12.463016 103.481549,12.5564019 102.892254,12.5564019 C101.80295,12.5564019 100.767218,12.257567 99.9457745,11.3050308 L103.017256,9.75482477 L103.017256,4.3937091 L99.2493338,6.15012883 C99.6421977,5.10344193 100.427926,4.41315105 101.231511,3.90810239 L101.17808,3.72133056 C98.9458983,4.35635472 96.9101488,6.50423053 96.9101488,9.15639029 C96.9101488,12.331511 99.3744768,14.6840417 102.178096,14.6840417 C105.213863,14.6840417 107.142468,12.2007708 107.106753,9.56728823 L106.928178,9.54964047 C106.481742,10.5582083 105.838874,11.5107446 104.999573,12.0150284 L104.999573,8.76519888 L106.213881,7.75663107 L106.197007,7.64456802 L105.000558,6.63520609 L105.000558,4.20796676 C106.10772,4.20796676 107.268455,3.42352516 107.268455,1.94802779 L107.267329,1.9469984 Z M100.74936,10.6318876 L99.8386306,11.098817 C99.3207641,10.3890842 98.9814726,9.43654793 98.9814726,8.1104681 C98.9814726,7.56882986 99.0349047,6.8956572 99.1957624,6.42952185 L100.767218,5.70111179 L100.750344,10.6318876 L100.74936,10.6318876 Z M109.838802,1.21779412 L109.731657,1.20014646 L108.231632,2.52622629 L108.231632,2.63828935 L109.499511,4.13246387 L109.624654,4.13246387 L111.124679,2.82506118 L111.107806,2.73152822 L109.839927,1.21791185 L109.838802,1.21779412 Z M112.124555,12.8171178 L111.553117,13.2093386 L110.820962,12.4443388 L110.820962,7.0263975 L111.535259,6.46608202 L111.392401,6.28019264 L110.83882,6.72768025 L109.535225,5.10276544 L107.392331,6.67241343 L107.517474,6.87800945 L108.053197,6.50370108 L108.713923,7.36285145 L108.713923,12.4430447 L107.749621,13.2080149 L107.856765,13.3574324 L108.356774,12.9838888 L109.99966,14.552772 L112.249698,12.9838888 L112.124555,12.8171178 Z M124.62477,12.7235847 L124.089047,13.0971284 L123.285462,12.3313639 L123.285462,7.00836734 L124.053332,6.41069757 L123.928189,6.24186759 L123.267463,6.76482868 L121.553148,5.10255958 L119.338825,6.74615154 L117.642366,5.10255958 L115.463758,6.7274743 L114.12445,5.10255958 L111.981555,6.67220748 L112.0887,6.87780359 L112.624423,6.50349522 L113.356579,7.34396835 L113.356579,12.4241616 L112.767283,13.0405086 L114.481599,14.5525661 L116.142341,12.9836828 L115.463758,12.3120985 L115.463758,7.00854379 L116.106626,6.56029146 L117.26736,7.68015762 L117.26736,12.4249263 L116.695922,13.0412733 L118.428094,14.5533602 L120.053122,12.984477 L119.374539,12.3128632 L119.374539,6.97042479 L119.945977,6.5782039 L121.178142,7.68015762 L121.178142,12.3494528 L120.678132,12.8910911 L122.428163,14.5533602 L124.731774,12.9105331 L124.62477,12.7235847 Z M131.142739,11.5282452 L129.303422,13.0231844 L127.392675,11.4535364 L127.392675,10.5196774 L130.946307,8.0363771 L130.946307,7.9234316 L129.178419,5.08450011 L125.303353,7.25181777 L125.303353,12.5748143 L127.892684,14.5351536 L131.285599,11.7335765 L131.142739,11.5282452 Z M127.392675,10.2395197 L127.392675,6.39202043 L127.517818,6.29848738 L129.160703,9.00667867 L127.392675,10.2395197 Z M138,9.5079919 L136.553546,8.3686838 C137.517849,7.49085629 137.892855,6.31339978 137.892855,5.51107516 C137.892855,5.39901201 137.875981,5.19356304 137.857141,5.00679121 L137.678565,5.00679121 C137.535706,5.41768925 137.249987,5.77255566 136.660691,5.77255566 C136.089252,5.77255566 135.678531,5.43636639 135.321382,5.02467424 L131.946324,6.94921805 L131.946324,9.80682669 L133.196346,10.8340716 C131.928467,12.0107341 131.69632,12.83253 131.69632,13.4301999 C131.69632,14.2146415 132.035611,14.7757217 132.678479,15.0364374 L132.767627,14.8676075 C132.60705,14.7190724 132.46405,14.6246571 132.46405,14.2699377 C132.46405,14.0084572 132.767627,13.6349135 133.339065,13.6349135 C134.07122,13.6349135 134.517657,14.1578746 134.749803,14.4380323 C134.749803,14.4203845 137.99986,12.4022195 137.99986,12.4022195 L138,9.5079919 Z M137.196414,7.1538729 C136.696406,8.08773194 135.535672,9.00370795 134.892804,9.52666905 L134.071361,8.85429051 L134.071361,6.07139055 C134.392795,6.81847776 135.178523,7.45350191 136.035681,7.45350191 C136.535689,7.45350191 136.803551,7.35938069 137.196414,7.1538729 Z M135.874963,13.3928455 C135.499956,12.515018 134.624943,11.8799938 133.73207,11.8799938 C133.51778,11.8799938 132.892769,11.8799938 132.321331,12.2543022 C132.660622,11.6558676 133.66064,10.5352369 134.946376,9.73288282 L135.874963,10.4799699 L135.874963,13.3928455 Z" id="path-1"/>
                </g>
            </g>
        </g>
    </g>
</svg>