<?xml version="1.0" encoding="UTF-8"?>
<svg width="28px" height="28px" viewBox="0 0 28 28" version="1.1" xmlns="http://www.w3.org/2000/svg" xmlns:xlink="http://www.w3.org/1999/xlink">
    <!-- Generator: Sketch 52.4 (67378) - http://www.bohemiancoding.com/sketch -->
    <title>people_tree</title>
    <desc>Created with Sketch.</desc>
    <defs>
        <rect id="path-1" x="0" y="0" width="28" height="28"/>
    </defs>
    <g id="people_tree" stroke="none" stroke-width="1" fill="none" fill-rule="evenodd">
        <g>
            <mask id="mask-2" fill="white">
                <use xlink:href="#path-1"/>
            </mask>
            <use id="Rectangle-7" fill-opacity="0" fill="#FFFFFF" xlink:href="#path-1"/>
            <g id="people_tree-outline" mask="url(#mask-2)" stroke="#758693" stroke-linecap="round" stroke-linejoin="round">
                <g transform="translate(1.000000, 1.000000)">
                    <path d="M4.33333333,7.15975 L4.33333333,8.66666667 L1.58275,9.45316667 C1.01075,9.61675 0.541666667,10.2375 0.541666667,10.8333333 L0.541666667,11.375 L6.5,11.375" id="Shape"/>
                    <path d="M7.58333333,7.12616667 L7.58333333,8.66666667 L10.3328333,9.45316667 C10.9059167,9.61675 11.375,10.2375 11.375,10.8333333 L11.375,11.375 L5.41666667,11.375" id="Shape"/>
                    <ellipse id="Oval" cx="5.95833333" cy="4.08525" rx="3.25" ry="3.54358333"/>
                    <path d="M9.17475,3.4645 C8.63308333,4.00616667 7.08391667,3.98016667 6.5,2.8925 C5.41666667,3.97583333 3.65625,3.97583333 2.77983333,3.35833333" id="Shape"/>
                    <path d="M18.4166667,7.15975 L18.4166667,8.66666667 L15.6660833,9.45316667 C15.0940833,9.61675 14.625,10.2375 14.625,10.8333333 L14.625,11.375 L20.5833333,11.375" id="Shape"/>
                    <path d="M21.6666667,7.1435 L21.6666667,8.66666667 L24.4161667,9.45316667 C24.98925,9.61675 25.4583333,10.2375 25.4583333,10.8333333 L25.4583333,11.375 L19.5,11.375" id="Shape"/>
                    <ellipse id="Oval" cx="20.0416667" cy="4.08525" rx="3.25" ry="3.54358333"/>
                    <path d="M23.24075,3.46125 C22.6990833,4.00291667 21.16725,3.98016667 20.5833333,2.8925 C19.5,3.97583333 17.7395833,3.97583333 16.8631667,3.35833333" id="Shape"/>
                    <path d="M11.375,21.2430833 L11.375,22.75 L8.62441667,23.5365 C8.05241667,23.7000833 7.58333333,24.3208333 7.58333333,24.9166667 L7.58333333,25.4583333 L13.5416667,25.4583333" id="Shape"/>
                    <path d="M14.625,21.2430833 L14.625,22.75 L17.3745,23.5365 C17.9475833,23.7000833 18.4166667,24.3208333 18.4166667,24.9166667 L18.4166667,25.4583333 L12.4583333,25.4583333" id="Shape"/>
                    <ellipse id="Oval" cx="13" cy="18.1685833" rx="3.25" ry="3.54358333"/>
                    <path d="M16.1990833,17.5175 C15.6574167,18.0591667 14.1255833,18.0635 13.5416667,16.9758333 C12.4583333,18.0591667 10.6979167,18.0591667 9.8215,17.4416667" id="Shape"/>
                    <path d="M4.33333333,13.5416667 L7.04166667,16.25" id="Shape"/>
                    <path d="M21.6666667,13.5416667 L18.9583333,16.25" id="Shape"/>
                </g>
            </g>
        </g>
    </g>
</svg>