<?xml version="1.0" encoding="UTF-8"?>
<svg width="28px" height="28px" viewBox="0 0 28 28" version="1.1" xmlns="http://www.w3.org/2000/svg" xmlns:xlink="http://www.w3.org/1999/xlink">
    <!-- Generator: Sketch 52.4 (67378) - http://www.bohemiancoding.com/sketch -->
    <title>person_id</title>
    <desc>Created with Sketch.</desc>
    <defs>
        <rect id="path-1" x="0" y="0" width="28" height="28"/>
    </defs>
    <g id="person_id" stroke="none" stroke-width="1" fill="none" fill-rule="evenodd">
        <g>
            <mask id="mask-2" fill="white">
                <use xlink:href="#path-1"/>
            </mask>
            <use id="Rectangle-7" fill-opacity="0" fill="#FFFFFF" xlink:href="#path-1"/>
            <g id="person_id-outline" mask="url(#mask-2)" stroke="#758693" stroke-linecap="round" stroke-linejoin="round">
                <g transform="translate(1.000000, 5.250000)">
                    <path d="M0.541666667,0.541666667 L0.541666667,17.875 L4.875,17.875 L4.875,17.0625 C4.875,16.0203333 5.72758333,15.1666667 6.77083333,15.1666667 C7.813,15.1666667 8.66666667,16.0203333 8.66666667,17.0625 L8.66666667,17.875 L17.3333333,17.875 L17.3333333,17.0625 C17.3333333,16.0203333 18.1859167,15.1666667 19.2291667,15.1666667 C20.2713333,15.1666667 21.125,16.0203333 21.125,17.0625 L21.125,17.875 L25.4583333,17.875 L25.4583333,0.541666667 L0.541666667,0.541666667 Z" id="Shape"/>
                    <circle id="Oval" cx="7.58333333" cy="5.95833333" r="2.16666667"/>
                    <path d="M7.58333333,8.125 C4.875,8.125 3.79166667,9.75 3.79166667,11.375 L11.375,11.375 C11.375,9.75 10.2916667,8.125 7.58333333,8.125 Z" id="Shape"/>
                    <path d="M14.0833333,11.375 L22.75,11.375" id="Shape"/>
                    <path d="M14.0833333,9.20833333 L22.75,9.20833333" id="Shape"/>
                    <path d="M14.0833333,7.04166667 L22.75,7.04166667" id="Shape"/>
                    <path d="M14.0833333,4.875 L18.4166667,4.875" id="Shape"/>
                </g>
            </g>
        </g>
    </g>
</svg>