<?xml version="1.0" encoding="UTF-8"?>
<svg width="28px" height="28px" viewBox="0 0 28 28" version="1.1" xmlns="http://www.w3.org/2000/svg" xmlns:xlink="http://www.w3.org/1999/xlink">
    <!-- Generator: Sketch 52.4 (67378) - http://www.bohemiancoding.com/sketch -->
    <title>person_check-blue</title>
    <desc>Created with Sketch.</desc>
    <g id="person_check-blue" stroke="none" stroke-width="1" fill="none" fill-rule="evenodd" stroke-linecap="round" stroke-linejoin="round">
        <g id="person_check-blue-outline">
            <g transform="translate(1.000000, 1.000000)">
                <polyline id="Stroke-1" stroke="#0FA6EB" points="22.6471151 18.1189477 19.7708333 22.6165459 18.102657 20.9483696"/>
                <path d="M20.3350694,14.6927083 C23.4519097,14.6927083 25.9774306,17.2182292 25.9774306,20.3350694 C25.9774306,23.4519097 23.4519097,25.9774306 20.3350694,25.9774306 C17.2182292,25.9774306 14.6927083,23.4519097 14.6927083,20.3350694 C14.6927083,17.2182292 17.2182292,14.6927083 20.3350694,14.6927083 Z" id="Stroke-2" stroke="#0FA6EB"/>
                <path d="M13.5642361,15.8211806 L13.5642361,12.6569444" id="Stroke-4" stroke="#758693"/>
                <path d="M7.921875,12.6567187 L7.921875,15.8209549 L2.26935764,17.8397917 C0.921961806,18.3216494 0.0225694444,19.5979514 0.0225694444,21.0277258 L0.0225694444,23.7202605 L12.4357639,23.7202605" id="Stroke-6" stroke="#758693"/>
                <path d="M10.7430556,0.0225694444 C13.8587674,0.0225694444 16.3854167,3.05477431 16.3854167,6.79340278 C16.3854167,10.5320312 13.8587674,13.5642361 10.7430556,13.5642361 C7.62734375,13.5642361 5.10069444,10.5320312 5.10069444,6.79340278 C5.10069444,3.05477431 7.62734375,0.0225694444 10.7430556,0.0225694444 Z" id="Stroke-8" stroke="#758693"/>
                <path d="M16.3324914,6.17624133 C16.142908,6.19993924 16.0120052,6.19203994 15.8212934,6.22927952 C13.8995052,6.59941841 12.6649566,5.90315105 11.6075781,4.05132813 C10.9722483,5.26782119 8.98726563,6.22927952 7.35775174,6.22927952 C6.55540799,6.22927952 5.86478299,6.06452258 5.17302952,5.70341147" id="Stroke-10" stroke="#758693"/>
            </g>
        </g>
    </g>
</svg>