<?xml version="1.0" encoding="UTF-8"?>
<svg width="28px" height="28px" viewBox="0 0 28 28" version="1.1" xmlns="http://www.w3.org/2000/svg" xmlns:xlink="http://www.w3.org/1999/xlink">
    <!-- Generator: Sketch 52.4 (67378) - http://www.bohemiancoding.com/sketch -->
    <title>person_avatar</title>
    <desc>Created with Sketch.</desc>
    <defs>
        <rect id="path-1" x="0" y="0" width="28" height="28"/>
    </defs>
    <g id="person_avatar" stroke="none" stroke-width="1" fill="none" fill-rule="evenodd">
        <g>
            <mask id="mask-2" fill="white">
                <use xlink:href="#path-1"/>
            </mask>
            <use id="Mask" fill-opacity="0" fill="#FFFFFF" xlink:href="#path-1"/>
            <g id="profile_avatar-outline" mask="url(#mask-2)" stroke="#758693" stroke-linecap="round" stroke-linejoin="round">
                <g transform="translate(1.000000, 1.000000)" id="Shape">
                    <path d="M10.8333333,16.25 C10.8333333,16.25 9.20833333,15.7083333 9.20833333,13 C8.3135,13 8.3135,10.8333333 9.20833333,10.8333333 C9.20833333,10.4704167 7.58333333,6.5 10.2916667,7.04166667 C10.8333333,4.875 16.7916667,4.875 17.3333333,7.04166667 C17.70925,8.54533333 16.7916667,10.5668333 16.7916667,10.8333333 C17.6865,10.8333333 17.6865,13 16.7916667,13 C16.7916667,15.7083333 15.1666667,16.25 15.1666667,16.25 L15.1666667,18.9583333 C17.8500833,19.96475 20.5075,20.79675 21.8681667,21.7479167 C24.0868333,19.4989167 25.4583333,16.40925 25.4583333,13 C25.4583333,6.11866667 19.8813333,0.541666667 13,0.541666667 C6.11866667,0.541666667 0.541666667,6.11866667 0.541666667,13 C0.541666667,16.41575 1.9175,19.50975 4.14375,21.7609167 C5.58458333,20.76425 8.42508333,19.8694167 10.8333333,18.9583333 L10.8333333,16.25 Z"/>
                    <path d="M4.14375,21.7609167 C6.4025,24.0435 9.5355,25.4583333 13,25.4583333 C16.4699167,25.4583333 19.6083333,24.0380833 21.8681667,21.7479167"/>
                </g>
            </g>
        </g>
    </g>
</svg>