<?xml version="1.0" encoding="UTF-8"?>
<svg width="28px" height="28px" viewBox="0 0 28 28" version="1.1" xmlns="http://www.w3.org/2000/svg" xmlns:xlink="http://www.w3.org/1999/xlink">
    <!-- Generator: Sketch 52.4 (67378) - http://www.bohemiancoding.com/sketch -->
    <title>phone_call-blue</title>
    <desc>Created with Sketch.</desc>
    <defs>
        <rect id="path-1" x="0" y="0" width="28" height="28"/>
    </defs>
    <g id="phone_call-blue" stroke="none" stroke-width="1" fill="none" fill-rule="evenodd">
        <g>
            <mask id="mask-2" fill="white">
                <use xlink:href="#path-1"/>
            </mask>
            <use id="Rectangle-7" fill-opacity="0" fill="#FFFFFF" xlink:href="#path-1"/>
            <g id="phone_call-blue-outline" mask="url(#mask-2)" stroke-linecap="round" stroke-linejoin="round">
                <g transform="translate(1.000000, 1.000000)" id="Shape">
                    <path d="M8.11633333,10.8463333 C8.96133333,10.00025 8.96133333,8.62766667 8.11633333,7.78158333 L5.8175,5.48383333 C4.9725,4.63883333 3.59883333,4.63883333 2.75383333,5.48383333 L1.49283333,6.74483333 C0.39975,7.83683333 0.23075,9.54416667 1.08333333,10.8333333 C4.745,16.3691667 9.62975,21.2539167 15.1666667,24.9166667 C16.4536667,25.7670833 18.1653333,25.5980833 19.2540833,24.5060833 L20.5161667,23.2450833 C21.3611667,22.4000833 21.3611667,21.0275 20.5161667,20.1814167 L18.2173333,17.8836667 C17.37125,17.0375833 15.99975,17.0375833 15.1536667,17.8836667 L14.38775,18.6495833 C11.8679167,16.58475 9.41416667,14.1320833 7.35041667,11.61225 L8.11633333,10.8463333 Z" stroke="#758693"/>
                    <path d="M13,0.541666667 C19.8813333,0.541666667 25.4583333,6.11866667 25.4583333,13" stroke="#089FE4"/>
                    <path d="M13,4.875 C17.4871667,4.875 21.125,8.51175 21.125,13" stroke="#089FE4"/>
                    <path d="M13,9.20833333 C15.0940833,9.20833333 16.7916667,10.9048333 16.7916667,13" stroke="#089FE4"/>
                </g>
            </g>
        </g>
    </g>
</svg>