<?xml version="1.0" encoding="UTF-8"?>
<svg width="28px" height="28px" viewBox="0 0 28 28" version="1.1" xmlns="http://www.w3.org/2000/svg" xmlns:xlink="http://www.w3.org/1999/xlink">
    <!-- Generator: Sketch 55.2 (78181) - https://sketchapp.com -->
    <title>quote</title>
    <desc>Created with Sketch.</desc>
    <g id="quote" stroke="none" stroke-width="1" fill="none" fill-rule="evenodd">
        <g id="Group-65">
            <rect id="Rectangle" x="0" y="0" width="28" height="28"/>
            <g id="Group-22" transform="translate(3.000000, 6.000000)" fill="#748692">
                <g id="Page-1">
                    <g id="Group-23">
                        <path d="M19.48049,13.2245339 C17.8769146,15.0616667 17.3274772,15.1630613 16.545669,15.5355576 C16.1799566,15.6829235 15.8928592,15.7383468 15.6035902,15.704835 C14.973366,15.6322262 14.5785529,15.3340573 14.2871121,14.8077505 C14.1411746,14.4451359 14.0160853,14.0846695 14.1407403,13.6683501 C14.2992736,13.1355988 14.5116648,12.9624546 14.8799833,12.7802881 C15.647024,12.430133 15.7399723,12.4262662 16.1178462,12.0722444 C16.8362411,11.399431 16.9252803,10.9822524 17.1194293,9.95198006 C17.1194293,9.95198006 17.1276818,9.88280831 17.1363685,9.81363657 C17.1693782,9.53737923 16.956987,9.40290249 16.6620716,9.40247285 C16.5917088,9.40247285 16.5078816,9.40290249 16.4257918,9.39774683 C15.9975347,9.41793982 15.8576779,9.40161357 15.6474583,9.37669456 C13.408881,9.11332637 11.5881367,7.14472432 11.9125871,4.44530777 C12.2035934,2.02257818 14.140306,0.0750284072 17.0790359,0.420887126 C19.9474032,0.758153081 22.1468901,3.1215926 21.6478359,7.27490468 C21.3316379,9.90471986 20.7817662,11.7341191 19.48049,13.2245339" id="Fill-1"/>
                        <path d="M8.23048997,13.2245339 C6.62691458,15.0616667 6.07747718,15.1630613 5.29566903,15.5355576 C4.92995655,15.6829235 4.64285923,15.7383468 4.35359021,15.704835 C3.72336597,15.6322262 3.32855285,15.3340573 3.03711215,14.8077505 C2.89117463,14.4451359 2.76608532,14.0846695 2.89074029,13.6683501 C3.04927361,13.1355988 3.26166482,12.9624546 3.62998333,12.7802881 C4.397024,12.430133 4.4899723,12.4262662 4.86784624,12.0722444 C5.58624106,11.399431 5.67528032,10.9822524 5.86942935,9.95198006 C5.86942935,9.95198006 5.87768177,9.88280831 5.88636853,9.81363657 C5.9193782,9.53737923 5.70698699,9.40290249 5.41207158,9.40247285 C5.34170885,9.40247285 5.25788164,9.40290249 5.17579178,9.39774683 C4.74753465,9.41793982 4.60767786,9.40161357 4.39745833,9.37669456 C2.15888099,9.11332637 0.338136671,7.14472432 0.662587055,4.44530777 C0.953593422,2.02257818 2.89030595,0.0750284072 5.82903593,0.420887126 C8.69740317,0.758153081 10.8968901,3.1215926 10.3978359,7.27490468 C10.0816379,9.90471986 9.5317662,11.7341191 8.23048997,13.2245339" id="Fill-1"/>
                    </g>
                </g>
            </g>
        </g>
    </g>
</svg>