<?xml version="1.0" encoding="UTF-8"?>
<svg width="22px" height="25px" viewBox="0 0 22 25" version="1.1" xmlns="http://www.w3.org/2000/svg" xmlns:xlink="http://www.w3.org/1999/xlink">
    <!-- Generator: Sketch 60 (88103) - https://sketch.com -->
    <title>Untitled</title>
    <desc>Created with Sketch.</desc>
    <g id="Page-1" stroke="none" stroke-width="1" fill="none" fill-rule="evenodd">
        <g id="abc-grey">
            <polygon id="container" points="0 0 21.5942029 0 21.5942029 25 0 25"/>
            <g id="Group-12" transform="translate(0.000000, 1.231884)" fill-rule="nonzero">
                <g id="Shape">
                    <g id="path-1-link" fill="#FFFFFF">
                        <path d="M10.7907124,-9.9475983e-14 C4.83125291,-9.9475983e-14 -1.0658141e-14,4.90195766 -1.0658141e-14,10.9497726 C-1.0658141e-14,16.9966479 4.83125291,21.8995451 10.7907124,21.8995451 C16.7501719,21.8995451 21.5814247,16.9966479 21.5814247,10.9497726 C21.5814247,4.90195766 16.7501719,-9.9475983e-14 10.7907124,-9.9475983e-14 Z M5.49041933,14.1219039 L5.49041933,13.215178 C5.0362546,13.7371326 4.51886938,14.085259 3.75696969,14.0815005 C1.95146676,14.0742544 0.491756596,12.5926997 0.492282678,10.7679576 C0.492282678,8.93806254 1.95379158,7.45441461 3.75696969,7.45441461 C5.5601478,7.45441461 7.12903827,8.92631737 7.12903827,10.7557426 L7.13089765,14.1096889 L5.49041933,14.1219039 Z M10.8715974,14.1731127 C9.06841931,14.1731127 7.50045856,12.7021496 7.50045856,10.8717848 L7.49859911,5.29753446 L9.13628834,5.29753446 L9.13814773,8.41375881 C9.59324222,7.89180416 10.1096977,7.5436778 10.8715974,7.54743624 C12.6747755,7.55730219 14.1372138,9.03108417 14.1372138,10.8609792 C14.1372138,12.6908742 12.6747755,14.1731127 10.8715974,14.1731127 Z M17.8932538,14.0960645 C16.089146,14.0960645 14.6276374,12.6124167 14.6276374,10.7825216 C14.6276374,8.95262651 16.089146,7.46991823 17.8932538,7.46991823 C19.4667929,7.46991823 20.7851257,8.63503753 21.0937904,10.1393569 L19.4514526,10.1337192 C19.1999653,9.53001832 18.6095976,9.12269636 17.9225398,9.12269636 C17.0054133,9.12476991 16.2635275,9.87770997 16.2653266,10.8046024 C16.2637847,11.7312352 17.0056702,12.4837544 17.9225398,12.4855689 C18.6095976,12.4855689 19.2083327,12.0829451 19.45982,11.4787743 L21.101228,11.4712574 C20.7967471,12.9812145 19.4705117,14.0960645 17.8932538,14.0960645 L17.8932538,14.0960645 Z" id="path-1"/>
                    </g>
                    <g id="path-1-link" fill="#758693" fill-opacity="0.7">
                        <path d="M10.7907124,-9.9475983e-14 C4.83125291,-9.9475983e-14 -1.0658141e-14,4.90195766 -1.0658141e-14,10.9497726 C-1.0658141e-14,16.9966479 4.83125291,21.8995451 10.7907124,21.8995451 C16.7501719,21.8995451 21.5814247,16.9966479 21.5814247,10.9497726 C21.5814247,4.90195766 16.7501719,-9.9475983e-14 10.7907124,-9.9475983e-14 Z M5.49041933,14.1219039 L5.49041933,13.215178 C5.0362546,13.7371326 4.51886938,14.085259 3.75696969,14.0815005 C1.95146676,14.0742544 0.491756596,12.5926997 0.492282678,10.7679576 C0.492282678,8.93806254 1.95379158,7.45441461 3.75696969,7.45441461 C5.5601478,7.45441461 7.12903827,8.92631737 7.12903827,10.7557426 L7.13089765,14.1096889 L5.49041933,14.1219039 Z M10.8715974,14.1731127 C9.06841931,14.1731127 7.50045856,12.7021496 7.50045856,10.8717848 L7.49859911,5.29753446 L9.13628834,5.29753446 L9.13814773,8.41375881 C9.59324222,7.89180416 10.1096977,7.5436778 10.8715974,7.54743624 C12.6747755,7.55730219 14.1372138,9.03108417 14.1372138,10.8609792 C14.1372138,12.6908742 12.6747755,14.1731127 10.8715974,14.1731127 Z M17.8932538,14.0960645 C16.089146,14.0960645 14.6276374,12.6124167 14.6276374,10.7825216 C14.6276374,8.95262651 16.089146,7.46991823 17.8932538,7.46991823 C19.4667929,7.46991823 20.7851257,8.63503753 21.0937904,10.1393569 L19.4514526,10.1337192 C19.1999653,9.53001832 18.6095976,9.12269636 17.9225398,9.12269636 C17.0054133,9.12476991 16.2635275,9.87770997 16.2653266,10.8046024 C16.2637847,11.7312352 17.0056702,12.4837544 17.9225398,12.4855689 C18.6095976,12.4855689 19.2083327,12.0829451 19.45982,11.4787743 L21.101228,11.4712574 C20.7967471,12.9812145 19.4705117,14.0960645 17.8932538,14.0960645 L17.8932538,14.0960645 Z" id="path-1"/>
                    </g>
                </g>
                <g id="Oval" transform="translate(9.122944, 9.029540)">
                    <g id="path-2-link" fill="#FFFFFF">
                        <ellipse id="path-2" cx="1.70681619" cy="1.74264583" rx="1.65721319" ry="1.68143631"/>
                    </g>
                    <g id="path-2-link" fill="#758693" fill-opacity="0.7">
                        <ellipse id="path-2" cx="1.70681619" cy="1.74264583" rx="1.65721319" ry="1.68143631"/>
                    </g>
                </g>
                <g id="Path" transform="translate(2.093563, 9.029540)">
                    <g id="path-3-link" fill="#FFFFFF">
                        <path d="M1.68432506,0.0612095391 C0.767198898,0.0627651239 0.0248974576,0.815284006 0.0261773744,1.74217604 C0.0246403077,2.66932774 0.766942026,3.42226755 1.68432506,3.42408212 C2.60126983,3.42174965 3.34287272,2.66888547 3.34107991,1.74217604 C3.34193725,1.29722792 3.16787258,0.870157016 2.85717182,0.554914479 C2.54647106,0.239671881 2.12458531,0.0620808463 1.68432506,0.0612095391 L1.68432506,0.0612095391 Z" id="path-3"/>
                    </g>
                    <g id="path-3-link" fill="#758693" fill-opacity="0.7">
                        <path d="M1.68432506,0.0612095391 C0.767198898,0.0627651239 0.0248974576,0.815284006 0.0261773744,1.74217604 C0.0246403077,2.66932774 0.766942026,3.42226755 1.68432506,3.42408212 C2.60126983,3.42174965 3.34287272,2.66888547 3.34107991,1.74217604 C3.34193725,1.29722792 3.16787258,0.870157016 2.85717182,0.554914479 C2.54647106,0.239671881 2.12458531,0.0620808463 1.68432506,0.0612095391 L1.68432506,0.0612095391 Z" id="path-3"/>
                    </g>
                </g>
            </g>
        </g>
    </g>
</svg>